<?xml version="1.0" encoding="UTF-8"?>
<svg id="Layer_1" data-name="Layer 1" xmlns="http://www.w3.org/2000/svg" viewBox="0 0 188.66 284.9">
  <defs>
    <style>
      .cls-1 {
        fill: #050505;
      }

      .cls-1, .cls-2, .cls-3, .cls-4, .cls-5, .cls-6, .cls-7, .cls-8 {
        stroke-width: 0px;
      }

      .cls-2 {
        fill: #010101;
      }

      .cls-3 {
        fill: #f7f7f7;
      }

      .cls-4 {
        fill: #0d0d0d;
      }

      .cls-5 {
        fill: #f6f6f6;
      }

      .cls-6 {
        fill: #fafafa;
      }

      .cls-7 {
        fill: #f9f9f9;
      }

      .cls-8 {
        fill: #fdfdfd;
      }
    </style>
  </defs>
  <path class="cls-2" d="M153.42,239.74c2,2.37,4.74,1.81,7.34,1.91,3.64.14,8.5-1.12,8.71,4.6.24,6.5-5.7,3.01-9.45,5.17,3.7,7.58,7.44,15.34,11.28,23.04,1.66,3.33,3.36,6.97-1.15,8.94-4.1,1.78-5.41-2.08-6.86-4.93-.13-.26-.33-.49-.47-.75-4.72-8.98-6.59-21.81-14.66-26.04-8.1-4.24-20.04-1.19-30.3-1.22q-18.92-.05-18.93,19.19c0,2.64-.04,5.28,0,7.92.07,4.93-2.09,7.1-7.1,5.86-1.61-.42-2.88-1.07-2-3.1.07-7.94-.03-15.88.29-23.81.17-4.26-.61-6.33-5.64-6.19-13.22.35-26.47.29-39.69,0-3.92-.09-5.71,1.42-7.26,4.73-3.86,8.22-8.04,16.28-12.14,24.39-1.36,2.7-3,5.68-6.62,3.93-3.86-1.86-2.97-4.96-1.3-8.18,4.02-7.77,7.81-15.66,11.62-23.34-1.55-2.25-3.44-1.28-4.98-1.37-2.69-.17-4.71-1.02-4.78-3.96-.08-3.28,2.23-5.34,5.03-4.73,10.26,2.22,12.82-5.15,15.91-12.05.12-.27.2-.56.33-.82,3.65-7.35,9.46-14.43,10.37-22.1.94-7.96-9.73-10.76-13.8-17.22-4.24-6.72-8.73-13.27-10.81-20.98-1.36-5.04-3.88-6.66-9.17-6.55-12.55.28-16.62-4.12-16.25-16.16.3-9.73,4.25-13.51,14.08-14.1,2.55-.15,6.3,1.99,7.46-2.24.91-3.35-.8-5.92-3.07-8.6C-8.76,87.94-5.99,45.19,25.95,16.77c26.36-23.44,71.2-22.09,96.17,2.63,4.74,4.69,3.21,7.66-.66,11.64-26.07,26.74-51.99,53.62-77.95,80.47-1.57,1.63-3.05,3.35-5.75,6.34h13.3c35.29,0,70.58.15,105.86-.13,6.91-.06,10.9,1.4,9.9,9.11-.6,4.62,1.96,5.04,5.77,5.16,11.99.39,16.3,4.82,16.05,15.78-.23,10.13-5,14.77-16.6,14.23-6.07-.29-7.96,2.33-9.46,7.26-3.31,10.89-9.56,20.06-17.63,27.99-8.77,8.61-9.08,11.16-2.13,21.29,1.38,3.68,2.87,7.32,5.06,10.61.39,1.49.27,3.22,1.95,4.11,1.39,2.05,1.72,4.68,3.58,6.48Z"/>
  <path class="cls-1" d="M130.48,100.32c-2.31-7.77-1.22-14.4,3.97-21.27,2.66-3.53,13.07-8.59,1.78-14.96-1.44-.81-1.4-3.83-.15-5.72,1.22-1.84,2.55-2.24,5.1-1.41,6.5,2.11,9.56,6.11,9.25,12.85-.21,4.62-2.53,8.27-5.19,11.83q-8.78,11.76,1.89,22.41c1.77,1.76,3.07,3.59,1.37,6.11-1.9,2.81-4.29,2.79-6.79,1-3.27-2.35-6.44-4.84-9.65-7.28-1.07-.95-1.66-2.1-1.59-3.55Z"/>
  <path class="cls-1" d="M113.94,87.71c-3.38,3.73-3.98,7.42.12,11.07,2.94,1.15,5.89,2.29,7.24,5.52l-.14-.14c2.22,2.1,1.78,4.41.54,6.78-6.39,3.75-9.9-1.45-13.45-4.87-4.89-4.71-7.18-10.58-4.89-17.63,1.7-5.22,5.5-8.93,8.52-13.24,2.52-3.59,5.51-7.59-1.23-10.55-2.25-.99-3.32-3.35-1.76-5.91,1.69-2.77,3.85-2.89,6.77-1.59,6.93,3.09,9.6,9.27,6.83,16.58-.93,2.45-1.75,4.93-2.62,7.4-2.32,1.89-2.58,5.63-5.95,6.57Z"/>
  <path class="cls-7" d="M121.7,110.93c.61-2.32.35-4.57-.54-6.78,5.97,5.68,6.05-2.93,9.31-3.83,1.09.93,2.1,1.9,1.59,3.55-1.54,5.17-5.35,6.99-10.37,7.05Z"/>
  <path class="cls-7" d="M113.94,87.71c1.52-2.61,2.8-5.44,5.95-6.57-.24,1.09-.26,2.29-.76,3.24-1.15,2.19,3.69,3.98.58,5.79-2.33,1.35-3.55-2.22-5.76-2.46Z"/>
  <path class="cls-7" d="M121.31,104.29c-3.1-.95-5.53-2.76-7.24-5.52,4.03-.27,8.37-.97,7.24,5.52Z"/>
  <path class="cls-4" d="M147.9,229.15c-3.78-2.54-5.15-6.23-5.06-10.61,2.43,3.18,4.38,6.59,5.06,10.61Z"/>
  <path class="cls-6" d="M89.82,280.33c.67,1.03,1.33,2.06,2,3.1-1.82,1.99-4.12,2.03-5.13-.22-.84-1.86,1.31-2.7,3.13-2.88Z"/>
  <path class="cls-4" d="M153.42,239.74c-2.95-1.19-3.74-3.57-3.58-6.48,2.34,1.53,3.12,3.91,3.58,6.48Z"/>
  <path class="cls-6" d="M95.22,126.7c18.76,0,37.52,0,56.28,0,3.11,0,6.51-.89,6.52,4.41.01,5.3-3.36,4.43-6.49,4.43-38.11,0-76.22-.03-114.33.05-3.6,0-6.01-.08-5.92-4.93.1-4.94,3.16-3.95,5.89-3.95,19.35-.04,38.7-.02,58.04-.02Z"/>
  <path class="cls-8" d="M44.3,241.63c5.12-10.3,9.65-19.11,13.85-28.06,1.59-3.38,3-4.03,6.56-2.3,6.55,3.19,13.53,5.52,20.94,5.66,3.51.07,4.68,1.68,4.35,4.89-.03.29-.01.59,0,.88q1.03,18.93-18.06,18.93c-8.77,0-17.55,0-27.65,0Z"/>
  <path class="cls-8" d="M144.72,241.63c-14.11,0-27.02-.17-39.92.09-4.47.09-5.94-1.04-6.03-5.8-.3-16.69-.57-16.89,14.95-20.67,5.24-1.28,10.82-6.75,15.08-4.07,3.93,2.48,5.1,9.31,7.56,14.19,2.56,5.08,5.2,10.12,8.36,16.26Z"/>
  <path class="cls-3" d="M47.31,155.72c3.11.27,4.24,2.36,5.04,4.58,4.07,11.2,11.43,19.49,21.93,25.03,2.98,1.57,4.75,3.88,2.9,7.03-1.65,2.81-4.5,2.12-6.98.83-12.42-6.48-21.12-16.34-26.02-29.4-1.25-3.33-1.64-7.07,3.13-8.07Z"/>
  <path class="cls-5" d="M22.54,147.12c1.25,5.11-.96,6.45-5.91,6.36-4.77-.08-6.86-1.4-6.83-6.44.03-4.93,1.96-6.39,6.79-6.48,5.13-.1,6.97,1.63,5.96,6.55Z"/>
  <path class="cls-3" d="M166.89,147.82c-.86-5.09.71-7.79,6.91-7.19,4.61.44,6,2.27,6.03,6.61.06,7.02-4.74,5.93-9.12,6.17-4.28.24-5.15-1.66-3.82-5.59Z"/>
</svg>