<?xml version="1.0" encoding="UTF-8"?>
<svg width="500" height="500" viewBox="0 0 499.99999 500.00001" xmlns="http://www.w3.org/2000/svg">
 <g transform="translate(22.606 22.606)" fill-rule="evenodd">
  <path d="m227.39-19.217h-227.09c-10.781 0-19.521 8.7401-19.521 19.521v454.18c0 10.78 8.7401 19.521 19.521 19.521h454.18c10.781 0 19.521-8.7411 19.521-19.521v-454.18c0-10.781-8.7401-19.521-19.521-19.521h-227.09z" fill="#fff" stroke="#000" stroke-width="6.7782"/>
  <g transform="matrix(1.2426 0 0 1.2426 -47.592 -58.492)">
   <path d="m89 78.333h264.6v303.48h-264.6v-303.48z"/>
   <path d="m94.544 82.653h253.51v53.28h-253.51v-53.28z" fill="#fff"/>
   <path d="m94.544 144.1h253.51v229.54h-253.51v-229.54z" fill="#fff"/>
   <path d="m122.77 94.697c8.347 0 15.12 6.774 15.12 15.12s-6.773 15.12-15.12 15.12-15.119-6.774-15.119-15.12 6.773-15.12 15.119-15.12"/>
   <path d="m122.77 99.737c5.564 0 10.08 4.516 10.08 10.08s-4.516 10.08-10.08 10.08-10.08-4.516-10.08-10.08 4.515-10.08 10.08-10.08" fill="#fff"/>
   <path d="m159.25 94.697c8.346 0 15.119 6.774 15.119 15.12s-6.773 15.12-15.119 15.12-15.12-6.774-15.12-15.12 6.773-15.12 15.12-15.12"/>
   <path d="m159.25 99.737c5.564 0 10.08 4.516 10.08 10.08s-4.516 10.08-10.08 10.08-10.08-4.516-10.08-10.08 4.516-10.08 10.08-10.08" fill="#fff"/>
   <path d="m319.33 94.697c8.346 0 15.12 6.774 15.12 15.12s-6.774 15.12-15.12 15.12-15.12-6.774-15.12-15.12 6.773-15.12 15.12-15.12"/>
   <path d="m319.33 99.737c5.563 0 10.08 4.516 10.08 10.08s-4.517 10.08-10.08 10.08-10.08-4.516-10.08-10.08 4.516-10.08 10.08-10.08" fill="#fff"/>
   <path d="m221.984,286.953h-65.197v-23.939c8.209-8.352 13.177-15.191 15.445-20.916 2.195-5.652-1.117-9.9-2.449-13.032-1.512-3.204-3.491-5.292-6.084-6.12-2.664-.864-5.651-.612-9.359.9v-13.068h-51.984v153.684h239.221v-153.685c-38.809,0-70.272,33.912-70.272,75.744-27.253,0-49.321.217-49.321.432zm-66.816-55.296c1.908-1.765 3.708-2.052 5.256-.864 1.439,1.152 4.968,3.961 4.068,7.848-.9,3.816-3.961,8.605-9.324,14.797v-21.781z"/>
   <path d="m106.42 298.29h230.29v5.652h-230.29v-5.652z" fill="#fff"/>
   <path d="m106.75 313.52h230.29v5.652h-230.29v-5.652z" fill="#fff"/>
   <path d="m106.82 345.31h230.29v5.652h-230.29v-5.652z" fill="#fff"/>
   <path d="m106.82 329.65h230.29v5.652h-230.29v-5.652z" fill="#fff"/>
   <path d="m134.43 293.94h6.12v65.736h-6.12v-65.736z" fill="#fff"/>
   <path d="m164.92 293.94h6.084v65.736h-6.084v-65.736z" fill="#fff"/>
   <path d="m198.62 293.94h6.084v65.736h-6.084v-65.736z" fill="#fff"/>
   <path d="m239.23 293.94h6.084v65.736h-6.084v-65.736z" fill="#fff"/>
   <path d="m274.15 293.94h6.12v65.736h-6.12v-65.736z" fill="#fff"/>
   <path d="m310.72 293.94h6.084v65.736h-6.084v-65.736z" fill="#fff"/>
   <path d="m235.33 214.66c9.3 0 16.848 10.822 16.848 24.155 0 13.336-7.548 24.156-16.848 24.156s-16.848-10.82-16.848-24.156c0-13.333 7.547-24.155 16.848-24.155"/>
   <path d="m231.92 257.79h7.308v32.652h-7.308v-32.652z"/>
   <path d="m177.27 217.36v21.492c5.58 16.127 11.196 24.084 16.848 24.156 5.58-0.072 11.197-8.029 16.849-24.156v-22.032h-6.769v21.024h-6.768v-21.024h-7.523v20.88h-6.121v-20.7h-6.516v0.36z"/>
   <path d="m190.05 257.79h7.308v32.652h-7.308v-32.652z"/>
  </g>
 </g>
</svg>
