<?xml version="1.0" encoding="UTF-8"?>
<svg id="Layer_1" data-name="Layer 1" xmlns="http://www.w3.org/2000/svg" viewBox="0 0 330.72 331.41">
  <defs>
    <style>
      .cls-1 {
        fill: #606161;
      }

      .cls-1, .cls-2 {
        stroke-width: 0px;
      }

      .cls-2 {
        fill: #fff;
      }
    </style>
  </defs>
  <path class="cls-1" d="M330.72,173.44c-.34,3.39-.67,6.79-1.03,10.18-2.16,20.75-8.08,40.39-17.88,58.79-18.98,35.64-47.14,61.34-84.43,76.89-15.12,6.31-30.89,10.08-47.22,11.46-38.67,3.27-74.32-5.66-106.44-27.37-35.31-23.87-58.26-56.74-68.81-98.1C.6,188.37-.93,171.14.55,153.75c4.15-48.82,25.56-88.52,63.88-118.99,18.91-15.04,40.35-25.06,63.87-30.55,15.47-3.61,31.15-4.89,47.02-3.89,36.99,2.32,69.61,15.55,97.65,39.68,27.18,23.38,44.88,52.71,53.32,87.58,2.27,9.36,3.59,18.86,4.12,28.47.04.66.21,1.31.32,1.96v15.43ZM165.43,317.58c83.37.11,151.15-67.78,151.45-151.43.31-84.65-69.92-154.32-155.1-152.3C81.04,15.76,14.09,82.18,13.97,165.25c-.12,84.23,67.46,152.21,151.46,152.32Z"/>
  <path class="cls-2" d="M165.43,317.58c-83.99-.11-151.58-68.1-151.46-152.32C14.09,82.18,81.04,15.76,161.77,13.84c85.18-2.02,155.41,67.66,155.1,152.3-.3,83.65-68.08,151.54-151.45,151.43ZM167.79,88.41c-30.24,0-60.49.15-90.73-.07-12.28-.09-19.71,9.76-19.7,19.28.06,38.75,0,77.51.04,116.26.01,11.04,8.14,19.15,19.14,19.16,60.85.03,121.7.02,182.56-.03,2.29,0,4.69-.32,6.84-1.06,7.67-2.67,12.28-9.68,12.38-18.56.07-6.79,0-13.59,0-20.39,0-31.34.05-62.69-.04-94.03,0-2.94-.49-6.02-1.46-8.78-2.16-6.12-8.45-11.87-18.11-11.83-30.3.15-60.61.05-90.91.05Z"/>
  <path class="cls-1" d="M167.79,88.41c30.3,0,60.61.09,90.91-.05,9.66-.05,15.95,5.7,18.11,11.83.97,2.76,1.46,5.84,1.46,8.78.09,31.34.05,62.69.04,94.03,0,6.8.07,13.59,0,20.39-.1,8.88-4.71,15.89-12.38,18.56-2.15.75-4.55,1.06-6.84,1.06-60.85.06-121.7.06-182.56.03-11,0-19.13-8.12-19.14-19.16-.04-38.75.02-77.51-.04-116.26-.02-9.52,7.42-19.37,19.7-19.28,30.24.22,60.48.07,90.73.07ZM80.97,102.15c-.13.17-.25.35-.38.52.45.3.95.55,1.35.91,21.58,19.75,43.13,39.54,64.76,59.24,4.97,4.52,10.13,8.84,15.39,13.03,3.59,2.86,7.53,2.91,11.37.19.5-.35,1.07-.62,1.53-1.01,3.96-3.37,8-6.65,11.84-10.15,22.29-20.34,44.52-40.74,66.79-61.1.47-.43,1.13-.66,1.7-.98-.18-.21-.36-.43-.54-.64H80.97ZM254.84,229.3c-19.38-17.77-38.35-35.16-57.4-52.63-3.2,2.89-6.27,5.68-9.36,8.45-11.24,10.07-28.57,10.24-40.01.37-2.92-2.52-5.73-5.16-8.6-7.74-.39-.35-.82-.66-1.27-1.02-19.05,17.48-38,34.86-57.31,52.57h173.95ZM71.28,114.57v105.04c19.18-17.87,38.09-35.49,57.16-53.24-19.04-17.26-37.97-34.4-57.16-51.79ZM264.49,114.52c-19.24,17.43-38.15,34.56-57.22,51.84,19.05,17.75,37.99,35.39,57.22,53.3v-105.14Z"/>
  <path class="cls-2" d="M80.97,102.15h173.8c.18.21.36.43.54.64-.57.32-1.23.55-1.7.98-22.27,20.36-44.5,40.76-66.79,61.1-3.84,3.5-7.88,6.78-11.84,10.15-.46.39-1.03.66-1.53,1.01-3.84,2.72-7.77,2.67-11.37-.19-5.26-4.19-10.42-8.51-15.39-13.03-21.63-19.7-43.17-39.49-64.76-59.24-.39-.36-.89-.61-1.35-.91.13-.17.25-.35.38-.52Z"/>
  <path class="cls-2" d="M254.84,229.3H80.89c19.31-17.72,38.26-35.1,57.31-52.57.45.36.88.66,1.27,1.02,2.87,2.58,5.68,5.22,8.6,7.74,11.44,9.88,28.77,9.7,40.01-.37,3.09-2.77,6.16-5.56,9.36-8.45,19.06,17.47,38.02,34.87,57.4,52.63Z"/>
  <path class="cls-2" d="M71.28,114.57c19.19,17.39,38.11,34.54,57.16,51.79-19.06,17.76-37.98,35.38-57.16,53.24v-105.04Z"/>
  <path class="cls-2" d="M264.49,114.52v105.14c-19.22-17.91-38.17-35.55-57.22-53.3,19.07-17.28,37.98-34.41,57.22-51.84Z"/>
</svg>