<?xml version="1.0" encoding="UTF-8"?>
<svg id="Layer_1" data-name="Layer 1" xmlns="http://www.w3.org/2000/svg" viewBox="0 0 178.16 71.93">
  <defs>
    <style>
      .cls-1 {
        fill: #000;
        stroke-width: 0px;
      }
    </style>
  </defs>
  <path class="cls-1" d="M26,35.46c0-8.65-.04-17.29.02-25.94C26.06,3.29,29.15.08,34.98,0c6.24-.08,9.4,2.95,9.43,9.53.08,17.63.08,35.25,0,52.88-.03,6.56-3.19,9.58-9.44,9.5-5.84-.08-8.92-3.28-8.96-9.51-.06-8.98-.02-17.96-.01-26.94Z"/>
  <path class="cls-1" d="M151.9,36c0,8.81.05,17.63-.02,26.44-.05,6.21-3.18,9.43-9,9.49-6.21.07-9.42-3-9.45-9.54-.08-17.63-.08-35.25.02-52.88.04-6.5,3.3-9.59,9.49-9.51,5.79.08,8.89,3.3,8.94,9.56.07,8.81.02,17.63.02,26.44Z"/>
  <path class="cls-1" d="M47.2,41.19v-10.54h83.47v10.54H47.2Z"/>
  <path class="cls-1" d="M166.32,35.99c0,6.99-.02,13.97,0,20.96.02,4.29-1.66,7.09-6.32,7.22-4.21.12-6.47-2.15-6.5-7-.09-14.14-.1-28.28,0-42.41.03-4.8,2.35-7.12,6.53-6.98,4.66.15,6.3,2.98,6.28,7.26-.03,6.99,0,13.97,0,20.96Z"/>
  <path class="cls-1" d="M24.41,36.1c0,6.82.07,13.64-.02,20.46-.07,5.33-2.08,7.61-6.42,7.62-4.35.01-6.36-2.26-6.38-7.63-.06-13.8,0-27.61-.03-41.42-.01-4.25,1.46-7.17,6.15-7.37,4.35-.19,6.57,2.18,6.66,7.37.12,6.98.03,13.97.03,20.96Z"/>
  <path class="cls-1" d="M10.16,36.64c-.27,1.29-.25,3.45-1.18,5.06-.75,1.28-2.66,2.59-4.06,2.59-1.4,0-3.75-1.37-4.03-2.53-.75-3.13-1.21-6.59-.6-9.69.35-1.77,2.99-4.28,4.61-4.29,1.6,0,3.46,2.53,4.74,4.29.67.91.34,2.56.52,4.57Z"/>
  <path class="cls-1" d="M167.8,36.07c.14-1.44-.2-3.23.53-4.33,1.12-1.69,3.12-4.16,4.46-4,1.81.22,4.21,2.36,4.79,4.18.81,2.53.73,5.69-.04,8.26-.51,1.71-3.03,4.13-4.37,3.96-1.81-.22-3.59-2.44-4.91-4.16-.68-.89-.34-2.56-.47-3.92Z"/>
</svg>