<?xml version="1.0" encoding="UTF-8"?>
<svg id="Layer_1" data-name="Layer 1" xmlns="http://www.w3.org/2000/svg" viewBox="0 0 797 603.99">
  <defs>
    <style>
      .cls-1 {
        fill: none;
        stroke: #000;
        stroke-miterlimit: 10;
      }

      .cls-2 {
        fill: #231f20;
        stroke-width: 0px;
      }
    </style>
  </defs>
  <path class="cls-1" d="M240.33,61.71v222.21l314.43,49.39c119.98,18.85,230.9-58.25,230.9-160.49h0c0-102.25-110.91-179.34-230.9-160.49L240.33,61.71Z"/>
  <circle class="cls-1" cx="625.42" cy="172.81" r="74.4"/>
  <path class="cls-1" d="M722.44,303.24c-35.09,26.45-80.85,38.96-128.32,30.06l-13.5-2.53v183.59c0,14.3-4.6,28.22-13.13,39.69h0c-10.44,14.06-.4,34.01,17.11,34.01h105.46c17.88,0,32.38-14.5,32.38-32.38"/>
  <path class="cls-2" d="M590.92,345.62c-12.71,0-25.51-.98-38.25-2.99l-314.43-49.39c-5.36-.84-9.24-4.76-9.24-9.33V61.71c0-4.57,3.88-8.49,9.24-9.33L552.68,2.99c60.51-9.51,122.39,3.93,169.77,36.86,47.38,32.93,74.55,81.39,74.55,132.96s-27.17,100.03-74.55,132.96c-37.4,26-83.85,39.85-131.52,39.85ZM251.67,276.03l305.19,47.94c53.86,8.46,108.94-3.5,151.12-32.81,42.17-29.31,66.36-72.45,66.36-118.35s-24.19-89.04-66.36-118.35c-42.17-29.31-97.25-41.27-151.12-32.81l-305.19,47.94v206.45Z"/>
  <path class="cls-2" d="M625.42,256.7c-46.26,0-83.89-37.63-83.89-83.89s37.63-83.89,83.89-83.89,83.89,37.63,83.89,83.89-37.63,83.89-83.89,83.89ZM625.42,107.9c-35.79,0-64.91,29.12-64.91,64.91s29.12,64.91,64.91,64.91,64.91-29.12,64.91-64.91-29.12-64.91-64.91-64.91Z"/>
  <path class="cls-2" d="M697.75,597.25l-105.25,6.68c-11.69.74-22.63-5.19-28.55-15.47-5.92-10.28-5.65-22.88.71-32.86,6.61-10.38,9.82-22.9,9.04-35.26l-11.82-186.34c-.18-2.87.9-5.66,2.95-7.63,2.05-1.97,4.37,2.85,7.18,3.21l16,2,9,1c22,2.77,32.85-6.22,53.69-12.83,19.98-6.34,42.31-12.2,58.31-26.17,2.73-2.38,2.47-7.41,5.79-5.98,3.32,1.43,5.56,4.64,5.79,8.29l16.25,256.22c1.49,23.44-16.05,43.69-39.09,45.15ZM581.55,344.4l11.09,174.73c1.04,16.47-3.23,33.15-12.05,46.98-2.48,3.89-2.58,8.6-.27,12.6,2.31,4,6.4,6.22,10.95,5.93l105.25-6.68c12.6-.8,22.18-11.87,21.37-24.68l-15.11-238.1c-14.24,10-29.79,17.71-46.41,22.98-23.44,7.43-47.84,9.62-72.54,6.52h0s-2.28-.29-2.28-.29Z"/>
  <g>
    <path class="cls-2" d="M176.47,118.47c-11.72,0-18.05-5.15-22.68-8.9-3.7-3-5.73-4.66-10.71-4.66s-7.02,1.65-10.71,4.66c-4.63,3.76-10.96,8.9-22.68,8.9s-18.05-5.15-22.68-8.9c-3.7-3-5.73-4.66-10.71-4.66s-7.02,1.65-10.72,4.66c-4.63,3.76-10.96,8.9-22.68,8.9s-18.06-5.15-22.68-8.9c-3.7-3-5.73-4.66-10.72-4.66-5.24,0-9.49-4.25-9.49-9.49s4.25-9.49,9.49-9.49c11.72,0,18.06,5.15,22.68,8.9,3.7,3,5.73,4.66,10.72,4.66s7.02-1.65,10.72-4.66c4.63-3.76,10.96-8.9,22.68-8.9s18.05,5.15,22.68,8.9c3.7,3,5.73,4.66,10.71,4.66s7.02-1.65,10.71-4.66c4.63-3.76,10.96-8.9,22.68-8.9s18.05,5.15,22.68,8.9c3.7,3,5.73,4.66,10.71,4.66,5.24,0,9.49,4.25,9.49,9.49s-4.25,9.49-9.49,9.49Z"/>
    <path class="cls-2" d="M176.47,189.08c-11.72,0-18.05-5.15-22.68-8.9-3.7-3-5.73-4.66-10.71-4.66s-7.02,1.65-10.71,4.66c-4.63,3.76-10.96,8.9-22.68,8.9s-18.05-5.15-22.68-8.9c-3.7-3-5.73-4.66-10.71-4.66s-7.02,1.65-10.72,4.66c-4.63,3.76-10.96,8.9-22.68,8.9s-18.06-5.15-22.68-8.9c-3.7-3-5.73-4.66-10.72-4.66-5.24,0-9.49-4.25-9.49-9.49s4.25-9.49,9.49-9.49c11.72,0,18.06,5.15,22.68,8.9,3.7,3,5.73,4.66,10.72,4.66s7.02-1.65,10.72-4.66c4.63-3.76,10.96-8.9,22.68-8.9s18.05,5.15,22.68,8.9c3.7,3,5.73,4.66,10.71,4.66s7.02-1.65,10.71-4.66c4.63-3.76,10.96-8.9,22.68-8.9s18.05,5.15,22.68,8.9c3.7,3,5.73,4.66,10.71,4.66,5.24,0,9.49,4.25,9.49,9.49s-4.25,9.49-9.49,9.49Z"/>
    <path class="cls-2" d="M176.47,259.69c-11.72,0-18.05-5.15-22.68-8.9-3.7-3-5.73-4.66-10.71-4.66s-7.02,1.65-10.71,4.66c-4.63,3.76-10.96,8.9-22.68,8.9s-18.05-5.15-22.68-8.9c-3.7-3-5.73-4.66-10.71-4.66s-7.02,1.65-10.72,4.66c-4.63,3.76-10.96,8.9-22.68,8.9s-18.06-5.15-22.68-8.9c-3.7-3-5.73-4.66-10.72-4.66-5.24,0-9.49-4.25-9.49-9.49s4.25-9.49,9.49-9.49c11.72,0,18.06,5.15,22.68,8.9,3.7,3,5.73,4.66,10.72,4.66s7.02-1.65,10.72-4.66c4.63-3.76,10.96-8.9,22.68-8.9s18.05,5.15,22.68,8.9c3.7,3,5.73,4.66,10.71,4.66s7.02-1.65,10.71-4.66c4.63-3.76,10.96-8.9,22.68-8.9s18.05,5.15,22.68,8.9c3.7,3,5.73,4.66,10.71,4.66,5.24,0,9.49,4.25,9.49,9.49s-4.25,9.49-9.49,9.49Z"/>
  </g>
  <path class="cls-2" d="M308.49,304.11c-.7,0-1.39-.05-2.09-.16l-68.15-10.71c-5.36-.84-9.24-4.76-9.24-9.33V61.71c0-4.57,3.88-8.49,9.24-9.33l68.15-10.71c3.31-.52,6.73.22,9.33,2.02,2.59,1.8,4.1,4.48,4.1,7.3v243.62c0,2.82-1.5,5.5-4.1,7.3-2.05,1.42-4.62,2.19-7.24,2.19ZM251.67,276.03l45.49,7.14V62.44l-45.49,7.14v206.45Z"/>
</svg>