<?xml version="1.0" encoding="UTF-8"?>
<svg id="Layer_1" data-name="Layer 1" xmlns="http://www.w3.org/2000/svg" viewBox="0 0 120.79 120.79">
  <defs>
    <style>
      .cls-1 {
        fill: #fff;
      }

      .cls-1, .cls-2 {
        stroke-width: 0px;
      }

      .cls-2 {
        fill: #231f20;
      }
    </style>
  </defs>
  <g>
    <circle class="cls-2" cx="60.4" cy="60.4" r="48.07"/>
    <path class="cls-2" d="M60.4,0C27.04,0,0,27.04,0,60.4s27.04,60.4,60.4,60.4,60.4-27.04,60.4-60.4S93.75,0,60.4,0ZM60.4,109.47c-27.06,0-49.07-22.01-49.07-49.07S33.34,11.32,60.4,11.32s49.07,22.01,49.07,49.07-22.01,49.07-49.07,49.07Z"/>
  </g>
  <path class="cls-1" d="M52.79,41.12s-.29-7.38-.52-9.7c-.24-2.42-.6-9.84-.6-9.84h-.71v12.97c0,.44-.36.8-.8.8s-.8-.36-.8-.8l-.32-12.97h-.93s-.32,12.97-.32,12.97c0,.37.03.76-.72.76s-.81-.35-.81-.76c0-.41-.01-12.97-.01-12.97h-1.01s-.2,12.97-.2,12.97c0,.44-.36.8-.8.8s-.8-.36-.8-.8v-12.97h-.71s-.37,7.43-.6,9.84c-.26,2.82-.52,9.7-.52,9.7,0,2.91,1.49,5.31,4.16,5.71l-2.26,49.09s-.52,3.25,3.29,3.25,3.29-3.25,3.29-3.25l-1.42-49.1c2.65-.42,4.12-2.81,4.12-5.7Z"/>
  <path class="cls-1" d="M81.9,35.66c0-6.48-5.19-11.17-7.94-11.17-2.48,0-7.94,4.69-7.94,11.17,0,5.77,2.82,10.55,6.53,11.54l-2.24,48.72s-.52,3.25,3.29,3.25,3.29-3.25,3.29-3.25l-1.41-48.75c3.66-1.04,6.43-5.8,6.43-11.51Z"/>
  <path class="cls-1" d="M64.16,97.04l-1.42-32.32c.07-.19.11-.42.11-.72,0-4.06-.03-13.22-.03-22.25,0-25.4-.48-25.47-2.07-23.56-1.96,2.35-4.49,10.55-4.49,23.56,0,11.37,1.53,20.85,3.57,23.07l-2.26,32.23s-.52,2.14,3.29,2.14,3.29-2.14,3.29-2.14Z"/>
</svg>