<?xml version="1.0" encoding="utf-8"?>
<!-- Generator: Adobe Illustrator 28.3.0, SVG Export Plug-In . SVG Version: 6.00 Build 0)  -->
<svg version="1.1" id="Layer_1" xmlns="http://www.w3.org/2000/svg" xmlns:xlink="http://www.w3.org/1999/xlink" x="0px" y="0px"
	 viewBox="0 0 1227.3 1800" style="enable-background:new 0 0 1227.3 1800;" xml:space="preserve">
<path d="M641.2,634.2c43.3,0,74.6,16,85.5,22.1c10.6,5.9,42.7,25.4,65.8,65.3c31.7,54.9,31.8,120.5,0.1,175.5l-151.4,262.7
	L489.8,897.1c-31.7-55-31.6-120.6,0.1-175.5c23.1-40,55.2-59.4,65.8-65.3C566.6,650.2,597.9,634.2,641.2,634.2L641.2,634.2z
	 M641.2,607.3L641.2,607.3c-155.3,0-252.4,168.5-174.7,303.2l162.8,282.6c2.4,4.3,7,6.9,11.9,6.9c4.9,0,9.5-2.6,11.9-6.9
	l162.8-282.6C893.6,775.8,796.5,607.3,641.2,607.3z"/>
<path d="M641.2,742c36.9,0,67.4,30.4,67.4,67.4c0,36.9-30.4,67.4-67.4,67.4c-36.9,0-67.4-30.4-67.4-67.4
	C573.8,772.4,604.2,742,641.2,742L641.2,742z M641.2,715.1c-52.1,0-94.3,42.2-94.3,94.3c0,52.1,42.2,94.3,94.3,94.3
	s94.3-42.2,94.3-94.3S693.3,715.1,641.2,715.1L641.2,715.1z"/>
</svg>
