<?xml version="1.0" encoding="UTF-8"?>
<svg id="Layer_1" data-name="Layer 1" xmlns="http://www.w3.org/2000/svg" viewBox="0 0 169.71 181.9">
  <defs>
    <style>
      .cls-1 {
        fill: #000;
        stroke-width: 0px;
      }
    </style>
  </defs>
  <path class="cls-1" d="M84.35,170.24c-8.16-.09-16.08,2.26-23.66,6.05-3.05,1.53-6.13,3.03-9.29,4.31-5.74,2.33-11.13,1.44-16.15-2.11-4.03-2.85-6.81-6.68-8.85-11.1-7.33-15.91-5.92-31.21,3.43-45.84,7.13-11.14,17.06-19.2,28.68-25.28,6.8-3.56,13.93-6.17,21.58-7.27,6.06-.87,11.94.03,17.68,1.84,15.77,4.97,29.05,13.66,39.23,26.79,5.8,7.48,9.68,15.86,10.55,25.38,1.04,11.41-1.61,21.92-8.59,31.09-3.06,4.02-7.16,6.76-12.31,7.6-2.92.47-5.78.06-8.46-1.1-3.6-1.55-7.13-3.26-10.66-4.96-7.21-3.48-14.75-5.48-23.18-5.41Z"/>
  <path class="cls-1" d="M131.02,43.66c.06,7.81-.85,14.13-4.04,19.95-1.91,3.48-4.52,6.31-7.99,8.29-5.86,3.33-11.57,3.04-17.01-.93-4.64-3.39-7.43-8.14-9.42-13.41-1.93-5.14-2.84-10.48-2.87-15.96-.05-8.97.13-17.94,1.4-26.83.38-2.66.91-5.34,1.74-7.89,1.94-5.93,7.19-8.28,13-6.05,2.9,1.11,5.36,2.92,7.63,5,9.09,8.33,14.49,18.68,16.67,30.75.5,2.75.7,5.56.88,7.09Z"/>
  <path class="cls-1" d="M80.09,35.03c-.15,5.24-.05,10.46-1.13,15.62-1.42,6.81-3.89,13.12-8.87,18.17-3.54,3.6-7.75,5.79-12.94,5.26-5.12-.52-9.11-3.2-12.29-7.1-3.47-4.26-5.3-9.27-5.84-14.65-1.86-18.17,3.75-33.7,16.96-46.38,2.64-2.54,5.61-4.64,9.23-5.6,4.78-1.27,9.2.89,11.14,5.44,1.41,3.31,2,6.85,2.32,10.39.57,6.27.95,12.56,1.42,18.84Z"/>
  <path class="cls-1" d="M.05,82.25c.36-7.47,1.17-16.49,4.11-25.18,1.41-4.16,3.31-8.06,6.52-11.18,1.9-1.85,4.13-3.08,6.72-3.71,2.18-.53,4.13-.09,5.93,1.19,2.21,1.57,3.86,3.67,5.26,5.95,4.9,7.97,7.95,16.67,9.92,25.76,1.47,6.75,1.81,13.56.22,20.35-1.6,6.79-5.02,12.43-10.67,16.63-6.47,4.81-13.91,4.32-19.67-1.33-3.94-3.86-6.01-8.72-7.24-13.99-.99-4.24-1.26-8.54-1.08-14.48Z"/>
  <path class="cls-1" d="M169.71,83.93c.03,6.52-.66,12.88-3.25,18.93-1.65,3.83-3.95,7.19-7.39,9.65-5.2,3.71-11.27,3.82-16.55.24-6.93-4.7-10.72-11.38-12.11-19.52-1.32-7.76-.3-15.36,1.77-22.85,1.86-6.71,4.22-13.24,7.74-19.28,1.1-1.89,2.35-3.73,3.78-5.37,3.72-4.26,7.14-5.18,12.88-1.65,3.7,2.28,5.86,5.87,7.56,9.75,2.52,5.76,3.74,11.86,4.47,18.06.47,4,.73,8.03,1.09,12.04Z"/>
</svg>