<?xml version="1.0" encoding="UTF-8"?>
<svg id="football" xmlns="http://www.w3.org/2000/svg" viewBox="0 0 229.4 229.4">
  <defs>
    <style>
      .cls-1 {
        fill: #606161;
        stroke-width: 0px;
      }
    </style>
  </defs>
  <g id="_4" data-name="4">
    <g>
      <path class="cls-1" d="M111.92,89.73c0,2.4,1.9,4.35,4.3,4.47,5.49.26,10.9,2.48,15.08,6.66s6.39,9.59,6.66,15.07c.12,2.4,2.07,4.3,4.47,4.3h.03c2.56,0,4.59-2.14,4.47-4.7-.37-7.65-3.46-15.19-9.29-21.01-5.83-5.83-13.37-8.93-21.02-9.29-2.56-.12-4.7,1.91-4.7,4.47v.03Z"/>
      <path class="cls-1" d="M117.52,72.74c0,2.42,1.93,4.39,4.35,4.47,8.38.29,16.68,3.62,23.07,10.01,6.38,6.38,9.72,14.68,10.01,23.06.08,2.42,2.05,4.35,4.47,4.35h0c2.53,0,4.56-2.09,4.47-4.62-.35-10.59-4.55-21.07-12.62-29.13-8.07-8.07-18.55-12.27-29.14-12.62-2.53-.08-4.62,1.95-4.62,4.47h0Z"/>
      <path class="cls-1" d="M122.38,56.27c0,2.41,1.91,4.41,4.32,4.47,11.37.28,22.66,4.74,31.32,13.4,8.66,8.66,13.12,19.94,13.4,31.31.06,2.41,2.06,4.32,4.47,4.32h.01c2.53,0,4.54-2.1,4.47-4.63-.36-13.56-5.7-27.01-16.02-37.33-10.33-10.33-23.78-15.66-37.34-16.02-2.53-.07-4.63,1.94-4.63,4.47h0Z"/>
      <path class="cls-1" d="M126.27,186.75c-24.05,0-51.89-26.61-53.17-27.85l-.15-.15c-2.94-3.2-10.46-11.81-16.84-22.49-8.5-14.22-11.62-26.48-9.26-36.42,6.01-25.36,20.22-29.79,20.82-29.97,5.04-1.46,16.33-1.03,23.09,11.01,3.71,6.62,5.47,12.48,5.23,17.43-.24,4.94-2.44,8.93-6.37,11.55-2.76,1.84-6.17,4.85-6.76,8.75-.45,2.99.83,6.34,3.8,9.96,5.08,6.19,11.64,12.78,17.54,17.62,3.62,2.97,6.97,4.25,9.96,3.8,3.9-.58,6.91-3.99,8.75-6.76,2.62-3.93,6.61-6.13,11.54-6.37,4.95-.24,10.81,1.52,17.43,5.23h0c12.04,6.75,12.47,18.05,11.01,23.08-.18.61-4.61,14.82-29.97,20.83-2.17.51-4.4.75-6.66.75ZM78.13,153.83c1.69,1.61,32.19,30.18,53.15,25.22,20.65-4.89,24.59-15.39,24.76-15.86.06-.26.6-2.57-.01-5.42-.84-3.9-3.4-7.08-7.63-9.45h0c-5.52-3.09-15.39-7.36-19.54-1.13-3.79,5.68-8.51,9.09-13.64,9.86-5.07.75-10.3-1.04-15.54-5.35-6.24-5.12-13.17-12.08-18.53-18.61-4.3-5.24-6.1-10.47-5.35-15.54.76-5.13,4.17-9.85,9.86-13.64,6.22-4.15,1.96-14.02-1.13-19.54-2.37-4.23-5.55-6.79-9.45-7.63-2.79-.6-5.05-.1-5.4-.02-.88.31-11.03,4.27-15.88,24.76-1.88,7.96,1.03,18.72,8.44,31.11,6.14,10.28,13.62,18.75,15.9,21.24ZM69.64,76.73s0,0,0,0h-.05s.05,0,.05,0Z"/>
    </g>
    <path class="cls-1" d="M114.7,229.4C51.45,229.4,0,177.94,0,114.7S51.45,0,114.7,0s114.7,51.45,114.7,114.7-51.45,114.7-114.7,114.7ZM114.7,9.34C56.6,9.34,9.34,56.6,9.34,114.7s47.27,105.36,105.36,105.36,105.36-47.27,105.36-105.36S172.8,9.34,114.7,9.34Z"/>
  </g>
</svg>