<?xml version="1.0" encoding="UTF-8"?>
<svg enable-background="new -0.258 -0.548 123.547 123.539" viewBox="-0.258 -0.548 123.547 123.539" xmlns="http://www.w3.org/2000/svg">
 <path d="m109.65 123.49c8.148 0 14.766-6.594 14.766-14.742v-94.023c0-8.156-6.617-14.766-14.766-14.766h-94.015c-8.156 0-14.773 6.609-14.773 14.766v94.023c0 8.148 6.617 14.742 14.773 14.742h94.015z" fill="#231f20"/>
 <path d="m15.633 2.441c-6.766 0-12.266 5.523-12.266 12.281v94.023c0 6.734 5.5 12.227 12.266 12.227h94.016c6.758 0 12.25-5.492 12.25-12.227v-94.022c0-6.758-5.492-12.281-12.25-12.281h-94.016z" fill="#fff"/>
 <path d="m60.039 19.387h6.539v82.445h-6.539z" fill="#231f20"/>
 <path d="m36.664,34.473c4.688,0 8.047,3.859 8.75,5.961l5.742,18.898c1.148,4.047-4.016,5.734-5.25,1.781l-5.164-17.336h-2.977l8.656,30.812h-8.258v24.047c0,4.102-6.164,4.078-6.164,0v-24.195h-3.133v24.149c0,4.148-6.195,4.148-6.195,0v-24h-8.273l8.57-30.812h-2.844l-5.18,17.383c-1.219,3.781-6.43,2.25-5.242-1.828l5.742-18.898c.617-2.148 3.336-5.961 8.047-5.961h13.173z" fill="#231f20"/>
 <path d="m30.43 33.059c3.695 0 6.695-3 6.695-6.688 0-3.711-3-6.711-6.695-6.711s-6.695 3-6.695 6.711c-1e-3 3.688 2.992 6.688 6.695 6.688z" fill="#231f20"/>
 <path d="m95.484 32.941c3.711 0 6.711-2.984 6.711-6.695 0-3.688-3-6.688-6.711-6.688-3.688 0-6.688 3-6.688 6.688 1e-3 3.711 3.001 6.695 6.688 6.695z" fill="#231f20"/>
 <path d="m86.43,97.879c0,2.078 1.656,3.758 3.734,3.758 2.07,0 3.758-1.68 3.758-3.758v-31.492h3.148v31.492c0,2.078 1.688,3.758 3.758,3.758 2.078,0 3.742-1.68 3.742-3.758l.023-54.297h3.125v20.016c0,4.031 5.242,4.031 5.242,0v-20.453c0-4.445-3.461-8.789-8.664-8.789l-17.75-.023c-4.758,0-8.57,3.875-8.57,8.688v20.578c0,3.984 5.273,3.984 5.273,0v-20.017h3.18v54.297z" fill="#231f20"/>
</svg>
