<?xml version="1.0" encoding="UTF-8"?>
<svg id="Layer_1" data-name="Layer 1" xmlns="http://www.w3.org/2000/svg" viewBox="0 0 280.37 187.06">
  <defs>
    <style>
      .cls-1, .cls-2 {
        stroke-width: 0px;
      }

      .cls-2 {
        fill: #fff;
      }
    </style>
  </defs>
  <path class="cls-1" d="M144.26,0c14.66.18,32.69,2.15,49.99,8.61,8.61,3.21,16.62,7.37,22.72,14.61.85,1.01,2.81,1.28,4.31,1.5,3.43.49,7.1.12,10.31,1.19,8.03,2.69,12.77,9.82,12.89,18.35.06,4.25.12,8.51-.01,12.75-.07,2.46.86,3.31,3.28,3.23,3.99-.14,7.98-.05,11.97-.03,13.66.09,22.41,10.48,20.37,24.09-1.69,11.24-3.31,22.5-4.98,33.75-1.91,12.86-3.82,25.71-5.76,38.56-.67,4.42-1.9,5.43-6.42,5.49q-7.5.1-7.51,7.59c0,2.12.06,4.27-.23,6.36-.96,6.79-6.61,11.34-13.39,10.95-6.5-.37-11.66-5.55-11.98-12.16-.14-2.87-.25-5.77,0-8.62.31-3.44-1.14-4.56-4.31-4.12-.24.03-.5,0-.75,0-55.88,0-111.75.04-167.63-.08-3.83,0-5.18,1.09-4.8,4.86.26,2.6.12,5.25.01,7.87-.29,7-5.66,12.23-12.55,12.3-6.84.08-12.42-5.1-12.85-12.03-.16-2.62-.06-5.25-.06-7.88q-.01-5.03-5.19-5.04c-1.37,0-2.74.01-4.12,0-4.34-.07-5.55-1.05-6.19-5.31-2.06-13.72-4.06-27.44-6.12-41.16-1.65-11-3.28-22-5.05-32.98-1.74-10.76,7.39-21.88,18.64-22.36,4.73-.2,9.48-.14,14.22-.04,2.23.05,3.16-.71,3.09-3.02-.12-3.87-.06-7.75-.02-11.63.14-12.91,8.04-20.92,20.81-20.75,3.77.05,6.33-1.02,9.01-3.85,8.11-8.53,18.85-12.4,29.87-15.45C110.47,1.49,125.45-.02,144.26,0ZM36.13,69.8c-6.41,0-12.52-.48-18.52.14-5.42.57-8.91,5.97-8.08,11.68,3.31,22.75,6.81,45.46,10.11,68.21.38,2.61,1.51,3.31,3.9,3.24,4.11-.12,8.23-.03,12.34-.03,73.31,0,146.63-.03,219.94.08,3.76,0,5.15-1.02,5.58-4.88,1.04-9.31,2.61-18.55,3.99-27.82,1.82-12.23,3.79-24.44,5.47-36.69,1.31-9.6-2.83-14.2-12.4-14.24-3.24-.01-6.51.25-9.72-.06-3.62-.34-4.36,1.2-4.32,4.5.16,11.87.08,23.75.06,35.63,0,5.02-1.41,6.39-6.48,6.43-3.37.03-6.73,0-10.1,0-61.22,0-122.44,0-183.66,0-7.25,0-8.11-.88-8.12-8.26,0-9,0-18,0-27,0-3.59,0-7.19,0-10.94ZM45.34,85.5c1.84-1.16,2.75-1.74,3.66-2.33,4.82-3.11,10-5,15.81-5,50.26.02,100.52.02,150.77,0,6.08,0,11.49,1.92,16.48,5.29.8.54,1.64,1.03,2.62,1.65.29-.69.63-1.12.63-1.56,0-13.38.18-26.76-.14-40.12-.14-5.63-4.45-9.28-10.13-9.58-3.11-.16-6.25.14-9.34-.15-1.45-.14-3.47-.81-4.12-1.9-4.76-8-12.57-11.59-20.7-14.54-21.01-7.63-42.81-9.14-64.89-7.46-14.61,1.11-29.01,3.56-42.31,10.09-4.29,2.1-9.11,4.66-11.66,8.39-3.43,5.03-7.33,6.11-12.6,5.54-.86-.09-1.74-.02-2.62,0-7.23.14-11.4,4.24-11.44,11.43-.06,9.13-.02,18.25-.02,27.38,0,3.97,0,7.94,0,12.9ZM235.16,106.57c-.25-1.77-.26-3.25-.67-4.61-2.56-8.55-9.38-14.46-18.32-14.58-22.79-.3-45.59-.11-68.39-.17-2.34,0-2.99,1.05-2.93,3.21.1,3.99.23,8.01-.04,11.99-.23,3.43.92,4.46,4.39,4.44,27.16-.14,54.31-.07,81.47-.08,1.34,0,2.68-.11,4.48-.19ZM90.41,106.77c13.84,0,27.69-.05,41.53.04,2.57.02,3.95-.41,3.79-3.45-.23-4.36-.16-8.75-.05-13.12.06-2.33-.95-3.04-3.12-3.03-22.57.05-45.15-.11-67.72.12-9.02.09-16.43,6.28-18.77,14.64-1.19,4.27-.83,4.79,3.55,4.79,13.59.01,27.19,0,40.78,0ZM43.21,169.49s.06,0,.09,0c0-1.74.37-3.61-.14-5.19-.31-.95-2-2.07-3.03-2.03-1.39.05-3.83,1.02-3.92,1.8-.38,3.56-.35,7.23.11,10.78.15,1.12,2.2,2.89,3.2,2.78,1.32-.15,2.99-1.65,3.54-2.97.61-1.49.14-3.43.14-5.17ZM246.13,169.27s.02,0,.03,0c0-1.74.39-3.62-.15-5.18-.31-.92-2.08-1.85-3.2-1.85-1.28,0-3.61.92-3.67,1.61-.35,3.57-.41,7.25.08,10.79.17,1.21,2.26,3,3.44,2.97,1.18-.03,2.81-1.8,3.33-3.16.58-1.52.13-3.44.13-5.18Z"/>
  <path class="cls-2" d="M36.13,69.8c0,3.75,0,7.35,0,10.94,0,9,0,18,0,27,0,7.38.87,8.26,8.12,8.26,61.22,0,122.44,0,183.66,0,3.37,0,6.73.03,10.1,0,5.07-.05,6.47-1.42,6.48-6.43.02-11.88.11-23.75-.06-35.63-.05-3.29.69-4.84,4.32-4.5,3.21.3,6.48.04,9.72.06,9.56.04,13.71,4.64,12.4,14.24-1.68,12.25-3.64,24.46-5.47,36.69-1.38,9.27-2.96,18.51-3.99,27.82-.43,3.86-1.81,4.88-5.58,4.88-73.31-.11-146.63-.08-219.94-.08-4.11,0-8.23-.09-12.34.03-2.39.07-3.52-.63-3.9-3.24-3.3-22.75-6.8-45.46-10.11-68.21-.83-5.71,2.65-11.12,8.08-11.68,6-.63,12.11-.14,18.52-.14Z"/>
  <path class="cls-2" d="M45.34,85.5c0-4.96,0-8.93,0-12.9,0-9.13-.04-18.26.02-27.38.05-7.19,4.21-11.29,11.44-11.43.87-.02,1.75-.09,2.62,0,5.26.56,9.17-.52,12.6-5.54,2.55-3.74,7.37-6.29,11.66-8.39,13.3-6.52,27.69-8.98,42.31-10.09,22.09-1.67,43.88-.16,64.89,7.46,8.13,2.95,15.94,6.55,20.7,14.54.65,1.09,2.67,1.76,4.12,1.9,3.09.29,6.23-.01,9.34.15,5.69.3,10,3.95,10.13,9.58.32,13.37.15,26.75.14,40.12,0,.44-.34.88-.63,1.56-.98-.62-1.82-1.11-2.62-1.65-4.98-3.36-10.4-5.29-16.48-5.29-50.26.02-100.52.02-150.77,0-5.82,0-11,1.89-15.81,5-.91.59-1.83,1.16-3.66,2.33Z"/>
  <path class="cls-2" d="M235.16,106.57c-1.8.08-3.14.19-4.48.19-27.16.01-54.31-.05-81.47.08-3.48.02-4.62-1.01-4.39-4.44.26-3.98.14-7.99.04-11.99-.06-2.16.59-3.22,2.93-3.21,22.8.06,45.6-.12,68.39.17,8.93.12,15.76,6.02,18.32,14.58.41,1.36.42,2.83.67,4.61Z"/>
  <path class="cls-2" d="M90.41,106.77c-13.59,0-27.19,0-40.78,0-4.38,0-4.74-.52-3.55-4.79,2.33-8.36,9.74-14.54,18.77-14.64,22.57-.23,45.15-.08,67.72-.12,2.17,0,3.18.7,3.12,3.03-.12,4.37-.19,8.76.05,13.12.16,3.03-1.22,3.46-3.79,3.45-13.84-.09-27.69-.04-41.53-.05Z"/>
  <path class="cls-2" d="M43.21,169.49c0,1.74.47,3.68-.14,5.17-.55,1.32-2.22,2.82-3.54,2.97-1,.11-3.06-1.66-3.2-2.78-.46-3.55-.49-7.22-.11-10.78.08-.78,2.53-1.75,3.92-1.8,1.03-.04,2.72,1.08,3.03,2.03.51,1.58.14,3.44.14,5.19-.03,0-.06,0-.09,0Z"/>
  <path class="cls-2" d="M246.13,169.27c0,1.74.45,3.66-.13,5.18-.52,1.36-2.15,3.13-3.33,3.16-1.18.03-3.27-1.76-3.44-2.97-.49-3.55-.43-7.22-.08-10.79.07-.69,2.39-1.61,3.67-1.61,1.11,0,2.88.93,3.2,1.85.53,1.56.15,3.44.15,5.18-.01,0-.02,0-.03,0Z"/>
</svg>