<?xml version="1.0" encoding="UTF-8"?>
<svg enable-background="new -0.258 -0.548 123.547 123.539" viewBox="-0.258 -0.548 123.547 123.539" xmlns="http://www.w3.org/2000/svg">
 <path d="m109.63 123.18c8.156 0 14.773-6.594 14.773-14.75v-94.016c0-8.156-6.617-14.773-14.773-14.773h-94.008c-8.156 0-14.773 6.617-14.773 14.773v94.016c0 8.156 6.617 14.75 14.773 14.75h94.008z" fill="#231f20"/>
 <path d="m15.625 2.137c-6.773 0-12.273 5.516-12.273 12.281v94.016c0 6.742 5.5 12.234 12.273 12.234h94.008c6.781 0 12.281-5.492 12.281-12.234v-94.016c0-6.766-5.5-12.281-12.281-12.281h-94.008z" fill="#fff"/>
 <path d="m112.539,101.551c-2.148,0-4.195-.484-6.031-1.32-1.875-.852-4-1.367-6.219-1.367-2.227,0-4.352.516-6.227,1.367-1.836.836-3.883,1.32-6.031,1.32s-4.203-.484-6.031-1.32c-1.906-.852-4.031-1.367-6.227-1.367-2.219,0-4.344.516-6.227,1.367-1.828.836-3.906,1.32-6.031,1.32-2.148,0-4.195-.484-6.047-1.32-1.883-.852-4-1.367-6.203-1.367-2.219,0-4.344.516-6.227,1.367-1.828.836-3.906,1.32-6.055,1.32-2.117,0-4.195-.484-6.023-1.32-1.883-.852-4.008-1.367-6.227-1.367-2.203,0-4.32.516-6.203,1.367-1.859.836-3.906,1.32-6.055,1.32v-9.055c2.148,0 4.195-.492 6.055-1.297 1.883-.875 4-1.391 6.203-1.391 2.219,0 4.344.516 6.227,1.391 1.828.805 3.906,1.297 6.023,1.297 2.148,0 4.227-.492 6.055-1.297 1.883-.875 4.008-1.391 6.227-1.391 2.203,0 4.32.516 6.203,1.391 1.852.805 3.898,1.297 6.047,1.297 2.125,0 4.203-.492 6.031-1.297 1.883-.875 4.008-1.391 6.227-1.391 2.195,0 4.32.516 6.227,1.391 1.828.805 3.883,1.297 6.031,1.297s4.195-.492 6.031-1.297c1.875-.875 4-1.391 6.227-1.391 2.219,0 4.344.516 6.219,1.391 1.836.805 3.883,1.297 6.031,1.297v9.055z" fill="#231f20"/>
 <path d="m98.336 75.941c6.438 0 11.664-5.25 11.664-11.695s-5.227-11.672-11.664-11.672c-6.453 0-11.672 5.227-11.672 11.672s4.758 11.695 11.672 11.695z" fill="#231f20"/>
 <path d="m30.391,82.512c.906.219 1.758.531 2.57.898 1.828.828 3.906,1.32 6.023,1.32 2.148,0 4.227-.492 6.055-1.32 1.883-.852 4.008-1.391 6.227-1.391 2.203,0 4.32.539 6.203,1.391 1.852.828 3.898,1.32 6.047,1.32 2.125,0 4.203-.492 6.031-1.32 1.883-.852 4.008-1.391 6.227-1.391 2.195,0 4.32.539 6.227,1.391 1.828.828 3.883,1.32 6.031,1.32 1.562,0 3.07-.266 4.492-.711l-19.462-35.124 22.633-4.133c3.32-.633 5.734-3.242 5.734-6.586 0-3.688-3-6.641-6.664-6.641-.266,0-.508,0-.758.023l-34.961,6.367c-2.453.562-5.703,4.156-3.852,8.57l.297.711 9.125,16.477-34.225,18.829z" fill="#231f20"/>
</svg>
