<?xml version="1.0" encoding="UTF-8"?>
<svg enable-background="new -0.258 -0.548 123.547 123.539" viewBox="-0.258 -0.548 123.547 123.539" xmlns="http://www.w3.org/2000/svg">
 <path d="m108.95 122.79c8.156 0 14.773-6.594 14.773-14.742v-94.039c0-8.133-6.617-14.75-14.773-14.75h-94.023c-8.133 0-14.75 6.617-14.75 14.75v94.039c0 8.148 6.617 14.742 14.75 14.742h94.023z"/>
 <path d="m14.93 1.77c-6.75 0-12.242 5.492-12.242 12.242v94.039c0 6.758 5.492 12.25 12.242 12.25h94.023c6.766 0 12.258-5.492 12.258-12.25v-94.039c0-6.75-5.492-12.242-12.258-12.242h-94.023z" fill="#fff"/>
 <path d="m93.523,16.082c1.734,0 3.125,1.398 3.125,3.102v10.633h-68.539v-10.61c0-1.703 1.391-3.094 3.102-3.094l62.312-.031zm-45.242,10.336c1.875,0 3.406-1.555 3.406-3.438s-1.531-3.414-3.406-3.414-3.406,1.539-3.406,3.414 1.523,3.438 3.406,3.438zm-10.039,0c1.906,0 3.406-1.555 3.406-3.438s-1.5-3.414-3.406-3.414c-1.875,0-3.406,1.539-3.406,3.414s1.531,3.438 3.406,3.438z"/>
 <path d="m27.938 106.54v-68.805c0-1.711 1.398-3.102 3.102-3.102h62.336c1.711 0 3.102 1.391 3.102 3.102v68.828l-68.54-0.023zm33.914-15.648c12.188 0 22.078-9.891 22.078-22.078s-9.891-22.079-22.078-22.079c-12.195 0-22.07 9.891-22.07 22.078s9.874 22.079 22.07 22.079z"/>
 <path d="m79.727,63.16c.469,1.609.711,3.305.711,5.078 0,10.234-8.328,18.531-18.562,18.531-10.25,0-18.555-8.297-18.555-18.531 0-1.906.297-3.734.805-5.453v.031c1.188,1.281 2.875,2.094 4.773,2.094 1.648,0 3.125-.594 4.273-1.617h-.023c1.156,1.023 2.664,1.617 4.297,1.617 1.695,0 3.25-.648 4.406-1.75v.023c1.148,1.079 2.687,1.727 4.398,1.727 1.758,0 3.375-.695 4.516-1.828v.023c1.148,1.133 2.734,1.805 4.5,1.805 1.703,0 3.289-.672 4.438-1.773l.023.023z"/>
</svg>
