<?xml version="1.0" encoding="UTF-8"?>
<svg id="Layer_5" data-name="Layer 5" xmlns="http://www.w3.org/2000/svg" viewBox="0 0 822.27 869.64">
  <defs>
    <style>
      .cls-1 {
        fill: #000;
        stroke-width: 0px;
      }
    </style>
  </defs>
  <polygon class="cls-1" points="782.36 636.75 547.59 566.6 557.98 808.65 641.88 744.37 740.25 869.64 800.74 823.3 702.37 698.03 782.36 636.75"/>
  <path class="cls-1" d="M458.32,777.34c17.96-14.72,41.14-35.94,64.57-63.35l-4.24-116.45h-82.83v-153.65h143.18c-.12,15.47-1.21,30.81-3.35,46.02-2.36,16.73-5.91,32.76-10.37,48.07l48.12,10.92c4.73-16.62,8.52-34.02,11.12-52.2,2.49-17.48,3.75-35.09,3.89-52.81h143.31c-3.72,47.33-16.42,92.13-36.31,132.71l49.24,11.18c24.13-52.72,37.62-111.38,37.62-173.15C822.27,185.99,637.84,0,411.14,0S0,185.99,0,414.61s184.43,414.61,411.14,414.61c40.03,0,78.74-5.82,115.35-16.64l-1.84-50.61c-21.31,7.14-43.48,12.34-66.32,15.36ZM772.37,395.1h-146.51c-4.77-42.51-16.13-85.62-34.08-129.26h149.81c17.61,39.86,28.38,83.45,30.78,129.26ZM715.48,217.06h-146.43c-28.28-54.55-66.63-109.84-114.98-165.7,109.59,13.17,204.32,76.06,261.41,165.7ZM435.83,104.65c30.9,37.92,56.83,75.41,77.76,112.41h-77.76v-112.41ZM435.83,265.84h102.58c19.81,43.87,32.39,87,37.7,129.26h-140.28v-129.26ZM358.16,52.71c-19.05,17.45-43.24,41.72-67.76,71.93-24.34,30-44.92,60.95-61.59,92.42h-122.03c55.34-86.89,146.04-148.65,251.37-164.35ZM80.68,265.84h125.62c-16.93,42.89-26.58,86.33-28.53,129.26H49.9c2.39-45.81,13.16-89.41,30.78-129.26ZM97.95,597.53c-26.3-45.88-43.03-98.03-47.4-153.65h128.25c4.47,51.96,19.91,103.24,46.19,153.65h-127.04ZM131.4,646.31h122.59c29.89,44.71,68.46,88.66,115.7,131.72-95.69-11.09-180.16-60.08-238.29-131.72ZM386.44,728.05c-27.99-26.99-52.34-54.25-73.01-81.75h73.01v81.75ZM386.44,597.53h-105.66c-29.78-50.61-47.32-101.9-52.44-153.65h158.1v153.65ZM386.44,395.1h-159.22c2.43-47.07,15-90.67,32.17-129.26h127.05v129.26ZM386.44,217.06h-101.69c14.3-24.02,29.61-45.2,43.95-62.96,20.48-25.36,40.9-46.35,57.74-62.2v125.16ZM435.83,646.31h77.51c-26.02,38.08-55.02,67.35-77.51,87.1v-87.1Z"/>
</svg>