<?xml version="1.0" encoding="UTF-8"?>
<svg id="Layer_1" data-name="Layer 1" xmlns="http://www.w3.org/2000/svg" viewBox="0 0 138.44 134.92">
  <defs>
    <style>
      .cls-1 {
        fill: #606060;
      }

      .cls-1, .cls-2 {
        stroke-width: 0px;
      }

      .cls-2 {
        fill: #fff;
      }

      .cls-3 {
        fill: none;
        stroke: #606060;
        stroke-miterlimit: 10;
        stroke-width: 6px;
      }
    </style>
  </defs>
  <path class="cls-1" d="M111.75,61.57v6.02c-.05.23-.13.46-.16.7-.2,1.39-.29,2.81-.59,4.18-3,13.58-10.71,23.58-23.33,29.39-12.05,5.55-24.16,5-36.05-.86-.39-.19-.95-.29-1.36-.18-6.18,1.59-12.36,3.23-18.53,4.85-.82.22-1.65.42-2.57.65.07-.32.09-.5.14-.67,1.81-6.63,3.63-13.26,5.41-19.89.12-.43.04-1.03-.17-1.43-4.17-7.72-5.82-15.94-4.79-24.63,1.17-9.85,5.3-18.37,12.64-25.06,12.2-11.13,26.45-14.3,41.98-8.86,14.63,5.13,23.47,15.86,26.71,31.08.33,1.55.47,3.15.69,4.72ZM39.06,96.44c.37-.08.55-.11.74-.15,3.14-.82,6.32-1.5,9.41-2.5,1.91-.62,3.38-.3,5.14.62,10.92,5.73,22,5.84,32.78-.14,10.48-5.81,16.28-14.96,17.5-26.91.65-6.42-.58-12.53-3.49-18.26-3.79-7.44-9.55-12.89-17.27-16.12-8.19-3.43-16.55-3.65-24.89-.61-8.45,3.08-14.75,8.73-18.86,16.74-3,5.86-4.13,12.1-3.5,18.66.54,5.63,2.41,10.8,5.47,15.55.21.33.29.87.19,1.26-.48,1.94-1.03,3.87-1.56,5.8-.54,1.97-1.08,3.95-1.66,6.06Z"/>
  <path class="cls-2" d="M38.89,96.69c.58-2.11,1.12-4.09,1.66-6.06.53-1.93,1.08-3.85,1.56-5.8.09-.39.02-.93-.19-1.26-3.07-4.75-4.93-9.92-5.47-15.55-.63-6.56.5-12.8,3.5-18.66,4.1-8.01,10.41-13.66,18.86-16.74,8.33-3.04,16.7-2.82,24.89.61,7.72,3.23,13.47,8.69,17.27,16.12,2.92,5.72,4.15,11.84,3.49,18.26-1.22,11.95-7.02,21.1-17.5,26.91-10.78,5.97-21.86,5.87-32.78.14-1.75-.92-3.22-1.24-5.14-.62-3.08.99-6.27,1.68-9.41,2.5-.18.05-.37.08-.74.15ZM57.2,45.73c-1.62-.22-2.92.09-4.02,1.17-3.27,3.23-4.29,7.1-3.29,11.54.72,3.21,2.46,5.92,4.36,8.54,5.47,7.54,12.16,13.48,21.22,16.38,2.62.84,5.25,1.56,7.96.93,4.94-1.15,7.71-3.69,7.92-8.49.04-.99-.25-1.66-1.18-2.07-1.06-.48-2.09-1.03-3.14-1.53-1.64-.77-3.27-1.57-4.94-2.28-1.21-.51-1.59-.32-2.36.67-1,1.28-2.05,2.52-3.07,3.79-.56.69-1.22.79-2.03.47-6.04-2.39-10.67-6.41-14.01-11.95-.69-1.15-.59-1.5.27-2.51.87-1.02,1.66-2.13,2.42-3.24.43-.62.35-1.32.05-2.02-1.01-2.37-2.04-4.72-2.96-7.12-.61-1.58-1.42-2.71-3.21-2.28Z"/>
  <path class="cls-1" d="M57.21,45.38c1.79-.43,2.6.7,3.21,2.28.93,2.4,1.95,4.76,2.96,7.12.3.7.38,1.39-.05,2.02-.77,1.11-1.55,2.21-2.42,3.24-.86,1-.96,1.36-.27,2.51,3.34,5.55,7.97,9.57,14.01,11.95.8.32,1.47.22,2.03-.47,1.02-1.27,2.07-2.51,3.07-3.79.77-.99,1.16-1.18,2.36-.67,1.67.71,3.3,1.5,4.94,2.28,1.05.5,2.08,1.05,3.14,1.53.93.41,1.22,1.08,1.18,2.07-.21,4.8-2.98,7.34-7.92,8.49-2.72.63-5.35-.09-7.96-.93-9.06-2.9-15.75-8.84-21.22-16.38-1.9-2.62-3.64-5.33-4.36-8.54-1-4.43.02-8.3,3.29-11.54,1.1-1.09,2.4-1.39,4.02-1.17Z"/>
  <ellipse class="cls-3" cx="69.22" cy="67.46" rx="66.22" ry="64.46"/>
</svg>