<?xml version="1.0" encoding="UTF-8"?>
<svg id="Layer_1" data-name="Layer 1" xmlns="http://www.w3.org/2000/svg" viewBox="0 0 772.55 345.71">
  <defs>
    <style>
      .cls-1 {
        fill: #186c7a;
      }

      .cls-1, .cls-2, .cls-3, .cls-4 {
        stroke-width: 0px;
      }

      .cls-2 {
        fill: #ffb327;
      }

      .cls-3 {
        fill: #fff;
      }

      .cls-4 {
        fill: #42d1d1;
      }
    </style>
  </defs>
  <path class="cls-4" d="M374.6,126.59l15.13,40.51,15.13-40.51h12.36v53.6h-9.09v-38.4l-14.4,38.4h-7.93l-14.47-38.26v38.26h-9.09v-53.6h12.36Z"/>
  <path class="cls-4" d="M454.24,126.59l21.89,53.6h-8.95l-5.67-14.04h-24.07l-5.75,14.04h-9.02l21.96-53.6h9.6ZM440.86,158.52h17.16l-8.58-21.6-8.58,21.6Z"/>
  <path class="cls-4" d="M479.48,126.52l12.73,24.66,12.95-24.66,10.4-.07-18.91,34.33v19.27h-8.87v-19.27l-18.91-34.33,10.62.07Z"/>
  <path class="cls-4" d="M545.05,138.37c-.41-.92-1.01-1.77-1.78-2.55-.73-.82-1.62-1.5-2.69-2.04-1.07-.53-2.25-.8-3.56-.8-2.76,0-4.9.79-6.4,2.36-1.5,1.58-2.25,3.33-2.25,5.27,0,1.45.51,2.65,1.53,3.6,1.02.95,2.28,1.76,3.78,2.44,1.46.63,3.03,1.2,4.73,1.71,1.7.51,3.2,1.05,4.51,1.64,1.6.78,3.19,1.49,4.76,2.15,1.58.65,2.97,1.49,4.18,2.51,1.26,1.02,2.27,2.34,3.02,3.96.75,1.62,1.13,3.75,1.13,6.36,0,2.13-.5,4.19-1.49,6.18-1,1.99-2.36,3.73-4.11,5.24-1.7,1.55-3.69,2.8-5.96,3.75-2.28.95-4.7,1.39-7.27,1.35-3.15,0-5.94-.55-8.36-1.64s-4.44-2.51-6.04-4.25c-1.65-1.7-2.89-3.61-3.71-5.75-.83-2.13-1.24-4.22-1.24-6.25h9.09c0,3.05,1.03,5.43,3.09,7.13,2.06,1.7,4.42,2.55,7.09,2.55,1.5,0,2.86-.23,4.07-.69s2.23-1.08,3.05-1.86c.87-.77,1.54-1.64,2-2.58.46-.95.69-1.9.69-2.87,0-2.08-.83-3.7-2.47-4.84-1.65-1.14-3.61-2.24-5.89-3.31-1.99-.78-4.11-1.52-6.36-2.22-2.25-.7-4.33-1.59-6.22-2.65-1.89-1.12-3.47-2.55-4.73-4.29-1.26-1.75-1.89-4.07-1.89-6.98,0-2.04.47-4.01,1.42-5.93.95-1.92,2.22-3.6,3.82-5.05,1.6-1.45,3.48-2.63,5.64-3.53,2.16-.9,4.45-1.35,6.87-1.35,2.57,0,4.92.46,7.05,1.38,2.13.92,3.97,2.11,5.53,3.56,1.5,1.5,2.71,3.2,3.64,5.09.92,1.89,1.45,3.81,1.6,5.75h-9.24c0-.77-.21-1.62-.62-2.54Z"/>
  <path class="cls-4" d="M562.94,142.48c1.48-3.42,3.48-6.41,6-8.98,2.57-2.52,5.56-4.53,8.98-6.04s7.07-2.25,10.95-2.25,7.46.75,10.87,2.25c3.42,1.5,6.41,3.52,8.98,6.04,2.52,2.57,4.53,5.56,6.04,8.98,1.5,3.42,2.25,7.04,2.25,10.87s-.75,7.53-2.25,10.95c-1.5,3.42-3.52,6.41-6.04,8.98-2.57,2.52-5.56,4.52-8.98,6-3.42,1.48-7.04,2.22-10.87,2.22s-7.53-.74-10.95-2.22c-3.42-1.48-6.41-3.48-8.98-6-2.52-2.57-4.52-5.56-6-8.98-1.48-3.42-2.22-7.07-2.22-10.95s.74-7.46,2.22-10.87ZM580.97,134.73c-2.45,1.07-4.59,2.52-6.44,4.36-1.84,1.84-3.29,3.99-4.33,6.44s-1.56,5.05-1.56,7.82.52,5.44,1.56,7.89c1.04,2.45,2.48,4.59,4.33,6.44,1.84,1.84,3.99,3.29,6.44,4.33,2.45,1.04,5.08,1.56,7.89,1.56s5.37-.52,7.82-1.56c2.45-1.04,4.59-2.48,6.44-4.33s3.3-3.99,4.36-6.44c1.07-2.45,1.6-5.08,1.6-7.89s-.53-5.37-1.6-7.82c-1.07-2.45-2.52-4.59-4.36-6.44-1.84-1.84-3.99-3.3-6.44-4.36-2.45-1.07-5.05-1.6-7.82-1.6s-5.44.53-7.89,1.6Z"/>
  <path class="cls-4" d="M631.99,126.59v45.6h25.09v8h-34.4v-53.6h9.31Z"/>
  <path class="cls-4" d="M389.91,215.1c1.96.83,3.72,1.96,5.27,3.42,1.55,1.46,2.81,3.2,3.78,5.24.97,2.04,1.46,4.29,1.46,6.76s-.51,4.64-1.53,6.65c-1.02,2.01-2.33,3.75-3.93,5.2-1.6,1.46-3.41,2.57-5.42,3.35-2.01.78-4.04,1.16-6.07,1.16h-12.44v20.58h-9.16v-53.6h22.04c2.04,0,4.04.41,6,1.24ZM371.04,239.03h11.56c1.07,0,2.12-.21,3.16-.62,1.04-.41,1.97-.98,2.8-1.71.82-.78,1.49-1.68,2-2.73.51-1.04.76-2.19.76-3.45s-.25-2.51-.76-3.6c-.51-1.09-1.18-2.02-2-2.8-.83-.78-1.76-1.37-2.8-1.78-1.04-.41-2.1-.62-3.16-.62h-11.56v17.31Z"/>
  <path class="cls-4" d="M405.44,267.39v-53.6h22.04c2.04,0,4.04.41,6,1.24,1.96.83,3.72,1.96,5.27,3.42,1.55,1.45,2.81,3.2,3.78,5.24.97,2.04,1.45,4.27,1.45,6.69,0,2.08-.41,4.1-1.24,6.04-.83,1.94-1.94,3.66-3.35,5.16-1.41,1.55-3.09,2.8-5.05,3.75-1.96.95-4.06,1.44-6.29,1.49l15.93,20.66h-9.96l-19.49-24.44v24.37h-9.09ZM414.53,238.96h11.64c1.07,0,2.12-.21,3.16-.62,1.04-.41,1.98-.98,2.8-1.71.82-.78,1.49-1.68,2-2.73.51-1.04.76-2.22.76-3.53s-.25-2.5-.76-3.56c-.51-1.07-1.18-1.99-2-2.76-.83-.77-1.76-1.37-2.8-1.78-1.04-.41-2.1-.62-3.16-.62h-11.64v17.31Z"/>
  <path class="cls-4" d="M450.57,229.76c1.48-3.42,3.48-6.41,6-8.98,2.57-2.52,5.56-4.53,8.98-6.04s7.07-2.25,10.95-2.25,7.46.75,10.87,2.25c3.42,1.5,6.41,3.52,8.98,6.04,2.52,2.57,4.53,5.56,6.04,8.98,1.5,3.42,2.25,7.04,2.25,10.87s-.75,7.53-2.25,10.95c-1.5,3.42-3.52,6.41-6.04,8.98-2.57,2.52-5.56,4.52-8.98,6-3.42,1.48-7.04,2.22-10.87,2.22s-7.53-.74-10.95-2.22c-3.42-1.48-6.41-3.48-8.98-6-2.52-2.57-4.52-5.56-6-8.98-1.48-3.42-2.22-7.07-2.22-10.95s.74-7.46,2.22-10.87ZM468.61,222.01c-2.45,1.07-4.59,2.52-6.44,4.36-1.84,1.84-3.29,3.99-4.33,6.44s-1.56,5.05-1.56,7.82.52,5.44,1.56,7.89c1.04,2.45,2.48,4.59,4.33,6.44,1.84,1.84,3.99,3.29,6.44,4.33,2.45,1.04,5.08,1.56,7.89,1.56s5.37-.52,7.82-1.56c2.45-1.04,4.59-2.48,6.44-4.33s3.3-3.99,4.36-6.44c1.07-2.45,1.6-5.08,1.6-7.89s-.53-5.37-1.6-7.82c-1.07-2.45-2.52-4.59-4.36-6.44-1.84-1.84-3.99-3.3-6.44-4.36-2.45-1.07-5.05-1.6-7.82-1.6s-5.44.53-7.89,1.6Z"/>
  <path class="cls-4" d="M538.5,215.1c1.96.83,3.72,1.96,5.27,3.42,1.55,1.46,2.81,3.2,3.78,5.24.97,2.04,1.46,4.29,1.46,6.76s-.51,4.64-1.53,6.65c-1.02,2.01-2.33,3.75-3.93,5.2-1.6,1.46-3.41,2.57-5.42,3.35-2.01.78-4.04,1.16-6.07,1.16h-12.44v20.58h-9.16v-53.6h22.04c2.04,0,4.04.41,6,1.24ZM519.62,239.03h11.56c1.07,0,2.12-.21,3.16-.62,1.04-.41,1.97-.98,2.8-1.71.82-.78,1.49-1.68,2-2.73.51-1.04.76-2.19.76-3.45s-.25-2.51-.76-3.6c-.51-1.09-1.18-2.02-2-2.8-.83-.78-1.76-1.37-2.8-1.78-1.04-.41-2.1-.62-3.16-.62h-11.56v17.31Z"/>
  <path class="cls-4" d="M588.79,213.86v7.93h-26.18v13.67h25.46v7.49h-25.46v16.66h26.91v7.85h-35.78v-53.6h35.06Z"/>
  <path class="cls-4" d="M594.75,267.39v-53.6h22.04c2.04,0,4.04.41,6,1.24,1.96.83,3.72,1.96,5.27,3.42,1.55,1.45,2.81,3.2,3.78,5.24.97,2.04,1.45,4.27,1.45,6.69,0,2.08-.41,4.1-1.24,6.04-.83,1.94-1.94,3.66-3.35,5.16-1.41,1.55-3.09,2.8-5.05,3.75-1.96.95-4.06,1.44-6.29,1.49l15.93,20.66h-9.96l-19.49-24.44v24.37h-9.09ZM603.85,238.96h11.64c1.07,0,2.12-.21,3.16-.62,1.04-.41,1.98-.98,2.8-1.71.82-.78,1.49-1.68,2-2.73.51-1.04.76-2.22.76-3.53s-.25-2.5-.76-3.56c-.51-1.07-1.18-1.99-2-2.76-.83-.77-1.76-1.37-2.8-1.78-1.04-.41-2.1-.62-3.16-.62h-11.64v17.31Z"/>
  <path class="cls-4" d="M650.76,221.79h-14.33v-7.93h37.82v7.93h-14.33v45.67h-9.16v-45.67Z"/>
  <path class="cls-4" d="M688.14,213.79v53.67h-9.6v-53.67h9.6Z"/>
  <path class="cls-4" d="M729.57,213.59v7.93h-26.18v13.67h25.46v7.49h-25.46v16.66h26.91v7.85h-35.78v-53.6h35.06Z"/>
  <path class="cls-4" d="M761.61,225.37c-.41-.92-1.01-1.77-1.78-2.55-.73-.82-1.62-1.5-2.69-2.04-1.07-.53-2.25-.8-3.56-.8-2.76,0-4.9.79-6.4,2.36-1.5,1.58-2.25,3.33-2.25,5.27,0,1.45.51,2.65,1.53,3.6,1.02.95,2.28,1.76,3.78,2.44,1.46.63,3.03,1.2,4.73,1.71,1.7.51,3.2,1.05,4.51,1.64,1.6.78,3.19,1.49,4.76,2.15,1.58.65,2.97,1.49,4.18,2.51,1.26,1.02,2.27,2.34,3.02,3.96.75,1.62,1.13,3.75,1.13,6.36,0,2.13-.5,4.19-1.49,6.18-1,1.99-2.36,3.73-4.11,5.24-1.7,1.55-3.69,2.8-5.96,3.75-2.28.95-4.7,1.39-7.27,1.35-3.15,0-5.94-.55-8.36-1.64s-4.44-2.51-6.04-4.25c-1.65-1.7-2.89-3.61-3.71-5.75-.83-2.13-1.24-4.22-1.24-6.25h9.09c0,3.05,1.03,5.43,3.09,7.13,2.06,1.7,4.42,2.55,7.09,2.55,1.5,0,2.86-.23,4.07-.69s2.23-1.08,3.05-1.86c.87-.77,1.54-1.64,2-2.58.46-.95.69-1.9.69-2.87,0-2.08-.83-3.7-2.47-4.84-1.65-1.14-3.61-2.24-5.89-3.31-1.99-.78-4.11-1.52-6.36-2.22-2.25-.7-4.33-1.59-6.22-2.65-1.89-1.12-3.47-2.55-4.73-4.29-1.26-1.75-1.89-4.07-1.89-6.98,0-2.04.47-4.01,1.42-5.93.95-1.92,2.22-3.6,3.82-5.05,1.6-1.45,3.48-2.63,5.64-3.53,2.16-.9,4.45-1.35,6.87-1.35,2.57,0,4.92.46,7.05,1.38,2.13.92,3.97,2.11,5.53,3.56,1.5,1.5,2.71,3.2,3.64,5.09.92,1.89,1.45,3.81,1.6,5.75h-9.24c0-.77-.21-1.62-.62-2.54Z"/>
  <g>
    <ellipse class="cls-4" cx="171.85" cy="197.83" rx="162.87" ry="85.98" transform="translate(-89.55 179.45) rotate(-45)"/>
    <g>
      <rect class="cls-3" x="117.55" y="171.78" width="108.58" height="100.64"/>
      <polygon class="cls-3" points="237.61 182.38 106.08 182.38 171.31 123.23 237.61 182.38"/>
      <rect class="cls-4" x="186.41" y="230.05" width="21.19" height="42.37"/>
      <rect class="cls-4" x="151.1" y="200.92" width="11.48" height="7.95" transform="translate(313.68 409.78) rotate(180)"/>
      <rect class="cls-4" x="139.62" y="200.92" width="7.95" height="7.95" transform="translate(287.19 409.78) rotate(180)"/>
      <rect class="cls-4" x="139.62" y="212.39" width="7.95" height="7.95" transform="translate(287.19 432.73) rotate(180)"/>
      <rect class="cls-4" x="151.1" y="212.39" width="11.48" height="7.95" transform="translate(313.68 432.73) rotate(180)"/>
    </g>
    <g>
      <rect class="cls-3" x="205.18" y="119.55" width="52.15" height="48.33"/>
      <polygon class="cls-3" points="262.84 124.64 199.67 124.64 231 96.23 262.84 124.64"/>
      <rect class="cls-4" x="238.25" y="147.53" width="10.18" height="20.35"/>
      <rect class="cls-4" x="221.29" y="133.54" width="5.51" height="3.82" transform="translate(448.09 270.9) rotate(180)"/>
      <rect class="cls-4" x="215.78" y="133.54" width="3.82" height="3.82" transform="translate(435.37 270.9) rotate(180)"/>
      <rect class="cls-4" x="215.78" y="139.05" width="3.82" height="3.82" transform="translate(435.37 281.92) rotate(180)"/>
      <rect class="cls-4" x="221.29" y="139.05" width="5.51" height="3.82" transform="translate(448.09 281.92) rotate(180)"/>
    </g>
    <g>
      <circle class="cls-2" cx="62.62" cy="41.14" r="41.14"/>
      <polygon class="cls-2" points="85.95 163.59 82.1 164.55 62.48 95.51 68.9 93.84 85.95 163.59"/>
      <polygon class="cls-2" points="11.86 159.74 8.49 158.78 24.85 88.97 31.29 90.58 11.86 159.74"/>
      <polygon class="cls-2" points="147.54 129.43 145.13 131.35 93.23 82.3 97.92 77.61 147.54 129.43"/>
      <polygon class="cls-2" points="176.89 77.46 175.93 80.35 108.55 55.58 111.03 49.42 176.89 77.46"/>
      <polygon class="cls-2" points="185.55 23.58 185.55 25.98 113.81 23.58 114.23 16.95 185.55 23.58"/>
    </g>
    <path class="cls-1" d="M300.06,169.73c5.33-2.35,11.82.89,16.1,4.18,6.77,5.35,11.49,12.52,14.23,20.63,6.17,19.14-1.74,40.53-12.19,56.16-28.97,41.94-78.69,67.43-126.2,82.15-38.88,11.39-80.19,16.71-120.43,9.71-21.31-4-42.1-11.12-57.88-27.3-5.99-6.36-11.08-14.4-13.02-23.14-2.84-12.52,3.43-26.01,14.42-31.81,2.54-1.31,5.26-2.19,8.06-2.31-.64,1.26-1.21,2.44-1.74,3.58-1.41,3.15-2.49,6.61-3.07,9.82-.97,5.75-.99,10.71.95,15.48.75,1.65,1.43,3.37,2.31,4.95,14.05,25,54.5,29.91,80.96,29.92,37.16-.13,74.16-8.55,108.76-21.88,33.51-13.52,67.31-32.04,89.39-61.24,10.35-14.03,15.06-28.74,10.78-45.62-1.86-7.24-4.56-19.19-11.44-23.27h0Z"/>
  </g>
</svg>