<?xml version="1.0" encoding="UTF-8"?>
<svg id="Layer_1" data-name="Layer 1" xmlns="http://www.w3.org/2000/svg" viewBox="0 0 263.78 101.78">
  <defs>
    <style>
      .cls-1 {
        fill: #fcb328;
      }

      .cls-1, .cls-2, .cls-3 {
        stroke-width: 0px;
      }

      .cls-2 {
        fill: #57c5c9;
      }

      .cls-3 {
        fill: #fff;
      }
    </style>
  </defs>
  <path class="cls-2" d="M136.4,21.45l6.66,19.05,6.66-19.05h5.44v25.21h-4v-18.06l-6.34,18.06h-3.49l-6.37-17.99v17.99h-4v-25.21h5.44Z"/>
  <path class="cls-2" d="M163.3,21.41l5.99,11.59,6.09-11.59,4.89-.03-8.89,16.14v9.06h-4.17v-9.06l-8.89-16.14,4.99.03Z"/>
  <path class="cls-2" d="M194.73,26.99c-.19-.43-.47-.83-.84-1.2-.34-.39-.76-.71-1.27-.96-.5-.25-1.06-.38-1.68-.38-1.3,0-2.3.37-3.01,1.11-.71.74-1.06,1.57-1.06,2.48,0,.68.24,1.25.72,1.69s1.07.83,1.78,1.15c.68.3,1.42.56,2.22.8.8.24,1.5.5,2.12.77.75.36,1.5.7,2.24,1.01s1.4.7,1.97,1.18c.59.48,1.07,1.1,1.42,1.86.35.76.53,1.76.53,2.99,0,1-.23,1.97-.7,2.91-.47.94-1.11,1.76-1.93,2.46-.8.73-1.73,1.32-2.8,1.76-1.07.44-2.21.66-3.42.63-1.48,0-2.79-.26-3.93-.77-1.14-.51-2.09-1.18-2.84-2-.78-.8-1.36-1.7-1.74-2.7-.39-1-.58-1.98-.58-2.94h4.28c0,1.44.48,2.55,1.45,3.35.97.8,2.08,1.2,3.33,1.2.71,0,1.35-.11,1.92-.32.57-.22,1.05-.51,1.44-.87.41-.36.72-.77.94-1.21.22-.44.32-.89.32-1.35,0-.98-.39-1.74-1.16-2.27-.78-.54-1.7-1.05-2.77-1.56-.94-.36-1.93-.71-2.99-1.04s-2.03-.75-2.92-1.25c-.89-.52-1.63-1.2-2.22-2.02-.59-.82-.89-1.92-.89-3.28,0-.96.22-1.89.67-2.79.44-.9,1.04-1.69,1.8-2.38s1.64-1.24,2.65-1.66c1.01-.42,2.09-.63,3.23-.63,1.21,0,2.31.22,3.32.65s1.87.99,2.6,1.68c.71.71,1.28,1.5,1.71,2.39.43.89.68,1.79.75,2.7h-4.34c0-.36-.1-.76-.29-1.2Z"/>
  <path class="cls-2" d="M203.11,28.92c.67-1.61,1.58-3.02,2.73-4.22,1.17-1.19,2.53-2.13,4.09-2.84,1.55-.71,3.21-1.06,4.98-1.06s3.39.35,4.95,1.06c1.56.71,2.92,1.65,4.09,2.84,1.15,1.21,2.06,2.62,2.75,4.22.68,1.61,1.03,3.31,1.03,5.11s-.34,3.54-1.03,5.15c-.68,1.61-1.6,3.02-2.75,4.22-1.17,1.19-2.53,2.13-4.09,2.82-1.55.7-3.2,1.04-4.95,1.04s-3.42-.35-4.98-1.04c-1.56-.69-2.92-1.64-4.09-2.82-1.15-1.21-2.06-2.62-2.73-4.22s-1.01-3.32-1.01-5.15.34-3.51,1.01-5.11ZM211.32,25.28c-1.11.5-2.09,1.19-2.93,2.05-.84.87-1.49,1.88-1.97,3.03-.47,1.15-.71,2.38-.71,3.68s.24,2.56.71,3.71c.47,1.15,1.13,2.16,1.97,3.03.84.87,1.81,1.54,2.93,2.03,1.11.49,2.31.74,3.59.74s2.44-.24,3.56-.74c1.11-.49,2.09-1.17,2.93-2.03.84-.87,1.5-1.88,1.99-3.03.48-1.15.73-2.39.73-3.71s-.24-2.52-.73-3.68c-.49-1.15-1.15-2.16-1.99-3.03-.84-.87-1.81-1.55-2.93-2.05-1.11-.5-2.3-.75-3.56-.75s-2.48.25-3.59.75Z"/>
  <path class="cls-2" d="M234.84,21.45v21.44h11.8v3.76h-16.18v-25.21h4.38Z"/>
  <path class="cls-2" d="M135.06,62.49v10.26h10.81v-10.26h4.31v25.21l-4.31-.03v-11.56h-10.81v11.56l-4.28.03v-25.21h4.28Z"/>
  <path class="cls-2" d="M154.23,69.96c.7-1.61,1.64-3.02,2.82-4.22,1.21-1.19,2.62-2.13,4.22-2.84,1.61-.71,3.32-1.06,5.15-1.06s3.51.35,5.11,1.06c1.61.71,3.01,1.65,4.22,2.84,1.19,1.21,2.13,2.62,2.84,4.22.71,1.61,1.06,3.31,1.06,5.11s-.35,3.54-1.06,5.15-1.65,3.02-2.84,4.22c-1.21,1.19-2.62,2.13-4.22,2.82-1.61.7-3.31,1.04-5.11,1.04s-3.54-.35-5.15-1.04c-1.61-.69-3.02-1.64-4.22-2.82-1.19-1.21-2.13-2.62-2.82-4.22s-1.04-3.32-1.04-5.15.35-3.51,1.04-5.11ZM162.71,66.32c-1.15.5-2.16,1.19-3.03,2.05s-1.54,1.88-2.03,3.03c-.49,1.15-.74,2.38-.74,3.68s.24,2.56.74,3.71c.49,1.15,1.17,2.16,2.03,3.03.87.87,1.87,1.54,3.03,2.03,1.15.49,2.39.74,3.71.74s2.52-.24,3.68-.74c1.15-.49,2.16-1.17,3.03-2.03s1.55-1.88,2.05-3.03c.5-1.15.75-2.39.75-3.71s-.25-2.52-.75-3.68c-.5-1.15-1.19-2.16-2.05-3.03-.87-.87-1.88-1.55-3.03-2.05-1.15-.5-2.38-.75-3.68-.75s-2.56.25-3.71.75Z"/>
  <path class="cls-2" d="M187.32,62.49v16.55c0,.68.13,1.33.38,1.93.25.6.6,1.13,1.06,1.59.46.46.99.82,1.61,1.09.62.27,1.29.41,2.02.41s1.37-.14,2-.41,1.17-.64,1.62-1.09.82-.99,1.08-1.59c.26-.6.39-1.25.39-1.93v-16.55h4.31v16.48c0,1.07-.22,2.17-.65,3.28-.43,1.12-1.05,2.12-1.85,3.01-.8.91-1.78,1.65-2.96,2.22-1.17.57-2.5.85-3.98.85s-2.8-.29-3.95-.85c-1.15-.57-2.13-1.31-2.92-2.22-.82-.89-1.44-1.89-1.85-3.01s-.62-2.21-.62-3.28v-16.48h4.31Z"/>
  <path class="cls-2" d="M218.11,68.15c-.19-.43-.47-.83-.84-1.2-.34-.39-.76-.71-1.27-.96-.5-.25-1.06-.38-1.68-.38-1.3,0-2.3.37-3.01,1.11-.71.74-1.06,1.57-1.06,2.48,0,.68.24,1.25.72,1.69.48.44,1.07.83,1.78,1.15.68.3,1.42.56,2.22.8.8.24,1.5.5,2.12.77.75.36,1.5.7,2.24,1.01.74.31,1.4.7,1.97,1.18.59.48,1.07,1.1,1.42,1.86.35.76.53,1.76.53,2.99,0,1-.23,1.97-.7,2.91-.47.94-1.11,1.76-1.93,2.46-.8.73-1.73,1.32-2.8,1.76-1.07.44-2.21.66-3.42.63-1.48,0-2.79-.26-3.93-.77-1.14-.51-2.09-1.18-2.84-2-.78-.8-1.36-1.7-1.74-2.7-.39-1-.58-1.98-.58-2.94h4.27c0,1.44.48,2.55,1.45,3.35.97.8,2.08,1.2,3.33,1.2.71,0,1.34-.11,1.92-.33.57-.22,1.05-.51,1.44-.87.41-.36.72-.77.94-1.21s.33-.9.33-1.35c0-.98-.39-1.74-1.16-2.27-.78-.54-1.7-1.06-2.77-1.56-.94-.37-1.93-.71-2.99-1.04-1.06-.33-2.04-.75-2.92-1.25-.89-.52-1.63-1.2-2.22-2.02-.59-.82-.89-1.92-.89-3.28,0-.96.22-1.89.67-2.79s1.04-1.69,1.8-2.38c.75-.68,1.64-1.24,2.65-1.66s2.09-.63,3.23-.63c1.21,0,2.31.22,3.32.65s1.87.99,2.6,1.68c.71.71,1.28,1.5,1.71,2.39.43.89.68,1.79.75,2.7h-4.34c0-.36-.1-.76-.29-1.2Z"/>
  <path class="cls-2" d="M242.89,62.61v3.73h-12.31v6.43h11.97v3.52h-11.97v7.83h12.65v3.69h-16.83v-25.21h16.48Z"/>
  <path class="cls-2" d="M258.63,68.15c-.19-.43-.47-.83-.84-1.2-.34-.39-.76-.71-1.27-.96-.5-.25-1.06-.38-1.68-.38-1.3,0-2.3.37-3.01,1.11-.71.74-1.06,1.57-1.06,2.48,0,.68.24,1.25.72,1.69.48.44,1.07.83,1.78,1.15.68.3,1.42.56,2.22.8.8.24,1.5.5,2.12.77.75.36,1.5.7,2.24,1.01.74.31,1.4.7,1.97,1.18.59.48,1.07,1.1,1.42,1.86.35.76.53,1.76.53,2.99,0,1-.23,1.97-.7,2.91-.47.94-1.11,1.76-1.93,2.46-.8.73-1.73,1.32-2.8,1.76-1.07.44-2.21.66-3.42.63-1.48,0-2.79-.26-3.93-.77-1.14-.51-2.09-1.18-2.84-2-.78-.8-1.36-1.7-1.74-2.7-.39-1-.58-1.98-.58-2.94h4.27c0,1.44.48,2.55,1.45,3.35.97.8,2.08,1.2,3.33,1.2.71,0,1.34-.11,1.92-.33.57-.22,1.05-.51,1.44-.87.41-.36.72-.77.94-1.21s.33-.9.33-1.35c0-.98-.39-1.74-1.16-2.27-.78-.54-1.7-1.06-2.77-1.56-.94-.37-1.93-.71-2.99-1.04-1.06-.33-2.04-.75-2.92-1.25-.89-.52-1.63-1.2-2.22-2.02-.59-.82-.89-1.92-.89-3.28,0-.96.22-1.89.67-2.79s1.04-1.69,1.8-2.38c.75-.68,1.64-1.24,2.65-1.66s2.09-.63,3.23-.63c1.21,0,2.31.22,3.32.65s1.87.99,2.6,1.68c.71.71,1.28,1.5,1.71,2.39.43.89.68,1.79.75,2.7h-4.34c0-.36-.1-.76-.29-1.2Z"/>
  <g>
    <ellipse class="cls-2" cx="72.23" cy="54.47" rx="59.16" ry="31.23" transform="translate(-17.36 67.03) rotate(-45)"/>
    <g>
      <polyline class="cls-3" points="89.58 81.57 52.51 81.57 52.51 45.01 91.95 45.01 91.95 78.85"/>
      <polygon class="cls-3" points="96.12 48.86 48.35 48.86 72.04 27.38 96.12 48.86"/>
      <rect class="cls-2" x="77.52" y="66.18" width="7.7" height="15.39"/>
      <rect class="cls-2" x="64.7" y="55.6" width="4.17" height="2.89" transform="translate(133.57 114.08) rotate(180)"/>
      <rect class="cls-2" x="60.53" y="55.6" width="2.89" height="2.89" transform="translate(123.95 114.08) rotate(180)"/>
      <rect class="cls-2" x="60.53" y="59.76" width="2.89" height="2.89" transform="translate(123.95 122.41) rotate(180)"/>
      <rect class="cls-2" x="64.7" y="59.76" width="4.17" height="2.89" transform="translate(133.57 122.41) rotate(180)"/>
    </g>
    <g>
      <rect class="cls-3" x="84.34" y="26.04" width="18.94" height="17.56"/>
      <polygon class="cls-3" points="105.28 27.89 82.34 27.89 93.72 17.57 105.28 27.89"/>
      <rect class="cls-2" x="96.35" y="36.21" width="3.7" height="7.39"/>
      <rect class="cls-2" x="90.19" y="31.12" width="2" height="1.39" transform="translate(182.39 63.64) rotate(180)"/>
      <rect class="cls-2" x="88.19" y="31.12" width="1.39" height="1.39" transform="translate(177.77 63.64) rotate(180)"/>
      <rect class="cls-2" x="88.19" y="33.13" width="1.39" height="1.39" transform="translate(177.77 67.64) rotate(180)"/>
      <rect class="cls-2" x="90.19" y="33.13" width="2" height="1.39" transform="translate(182.39 67.64) rotate(180)"/>
    </g>
  </g>
  <g>
    <circle class="cls-1" cx="18.1" cy="13.76" r="13.76"/>
    <polygon class="cls-1" points="25.91 54.71 24.62 55.03 18.06 31.94 20.2 31.38 25.91 54.71"/>
    <polygon class="cls-1" points="1.13 53.42 0 53.1 5.47 29.75 7.62 30.29 1.13 53.42"/>
    <polygon class="cls-1" points="47.22 43.84 46.41 44.49 29.06 28.08 30.63 26.51 47.22 43.84"/>
    <polygon class="cls-1" points="57.93 25.93 57.61 26.89 35.08 18.61 35.9 16.55 57.93 25.93"/>
    <polygon class="cls-1" points="59.21 7.88 59.21 8.69 35.22 7.89 35.36 5.67 59.21 7.88"/>
  </g>
</svg>