<?xml version="1.0" encoding="UTF-8"?>
<svg id="Layer_1" data-name="Layer 1" xmlns="http://www.w3.org/2000/svg" viewBox="0 0 231.29 88.05">
  <defs>
    <style>
      .cls-1 {
        fill: #fcb328;
      }

      .cls-1, .cls-2, .cls-3 {
        stroke-width: 0px;
      }

      .cls-2 {
        fill: #57c5c9;
      }

      .cls-3 {
        fill: #fff;
      }
    </style>
  </defs>
  <path class="cls-2" d="M118,18.55l5.76,16.48,5.76-16.48h4.71v21.81h-3.46v-15.62l-5.48,15.62h-3.02l-5.51-15.56v15.56h-3.46v-21.81h4.71Z"/>
  <path class="cls-2" d="M159.2,18.52l5.18,10.03,5.27-10.03,4.23-.03-7.69,13.97v7.84h-3.61v-7.84l-7.69-13.97,4.32.03Z"/>
  <path class="cls-2" d="M186.39,23.35c-.17-.37-.41-.72-.73-1.04-.3-.34-.66-.61-1.09-.83-.43-.22-.92-.33-1.45-.33-1.12,0-1.99.32-2.6.96-.61.64-.92,1.36-.92,2.15,0,.59.21,1.08.62,1.46s.93.72,1.54.99c.59.26,1.23.49,1.92.69.69.21,1.3.43,1.83.67.65.32,1.3.61,1.94.87s1.21.61,1.7,1.02c.51.41.92.95,1.23,1.61.31.66.46,1.52.46,2.59,0,.87-.2,1.71-.61,2.51-.4.81-.96,1.52-1.67,2.13-.69.63-1.5,1.14-2.43,1.52-.93.38-1.91.57-2.96.55-1.28,0-2.42-.22-3.4-.67-.99-.44-1.8-1.02-2.46-1.73-.67-.69-1.17-1.47-1.51-2.34-.34-.87-.5-1.72-.5-2.54h3.7c0,1.24.42,2.21,1.26,2.9.84.69,1.8,1.04,2.88,1.04.61,0,1.16-.09,1.66-.28.49-.19.91-.44,1.24-.75.35-.32.63-.67.81-1.05.19-.38.28-.77.28-1.17,0-.85-.34-1.5-1.01-1.97-.67-.46-1.47-.91-2.4-1.35-.81-.31-1.67-.62-2.59-.9s-1.76-.65-2.53-1.08c-.77-.45-1.41-1.04-1.92-1.75-.51-.71-.77-1.66-.77-2.84,0-.83.19-1.63.58-2.41.38-.78.9-1.46,1.55-2.06s1.42-1.07,2.29-1.43c.88-.36,1.81-.55,2.8-.55,1.05,0,2,.19,2.87.56s1.62.86,2.25,1.45c.61.61,1.1,1.3,1.48,2.07.37.77.59,1.55.65,2.34h-3.76c0-.31-.08-.66-.25-1.04Z"/>
  <path class="cls-2" d="M193.63,25.02c.58-1.39,1.37-2.61,2.36-3.65,1.01-1.03,2.19-1.84,3.53-2.46,1.34-.61,2.78-.92,4.31-.92s2.93.31,4.28.92c1.35.61,2.52,1.43,3.53,2.46.99,1.05,1.78,2.26,2.38,3.65.59,1.39.89,2.87.89,4.42s-.3,3.06-.89,4.45-1.38,2.61-2.38,3.65c-1.01,1.03-2.19,1.84-3.53,2.44-1.34.6-2.77.9-4.28.9s-2.96-.3-4.31-.9c-1.35-.6-2.52-1.41-3.53-2.44-.99-1.05-1.78-2.26-2.36-3.65s-.87-2.87-.87-4.45.29-3.03.87-4.42ZM200.73,21.87c-.96.43-1.81,1.03-2.53,1.78-.73.75-1.29,1.62-1.7,2.62-.41,1-.62,2.06-.62,3.18s.21,2.21.62,3.21c.41,1,.98,1.87,1.7,2.62.72.75,1.57,1.34,2.53,1.76.96.42,2,.64,3.11.64s2.11-.21,3.08-.64c.96-.42,1.81-1.01,2.53-1.76s1.3-1.62,1.72-2.62c.42-1,.63-2.07.63-3.21s-.21-2.18-.63-3.18c-.42-1-.99-1.87-1.72-2.62-.73-.75-1.57-1.34-2.53-1.78-.96-.43-1.99-.65-3.08-.65s-2.14.22-3.11.65Z"/>
  <path class="cls-2" d="M221.08,18.55v18.55h10.21v3.25h-14v-21.81h3.79Z"/>
  <path class="cls-2" d="M116.85,54.06v8.88h9.35v-8.88h3.73v21.81l-3.73-.03v-10h-9.35v10l-3.7.03v-21.81h3.7Z"/>
  <path class="cls-2" d="M133.43,60.52c.6-1.39,1.42-2.61,2.44-3.65,1.05-1.03,2.26-1.84,3.65-2.46,1.39-.61,2.87-.92,4.45-.92s3.03.31,4.42.92c1.39.61,2.61,1.43,3.65,2.46,1.03,1.05,1.84,2.26,2.46,3.65.61,1.39.92,2.87.92,4.42s-.31,3.06-.92,4.45-1.43,2.61-2.46,3.65c-1.05,1.03-2.26,1.84-3.65,2.44-1.39.6-2.87.9-4.42.9s-3.06-.3-4.45-.9c-1.39-.6-2.61-1.41-3.65-2.44-1.03-1.05-1.84-2.26-2.44-3.65-.6-1.39-.9-2.87-.9-4.45s.3-3.03.9-4.42ZM140.77,57.37c-1,.43-1.87,1.03-2.62,1.78s-1.34,1.62-1.76,2.62c-.42,1-.64,2.06-.64,3.18s.21,2.21.64,3.21c.42,1,1.01,1.87,1.76,2.62.75.75,1.62,1.34,2.62,1.76,1,.42,2.07.64,3.21.64s2.18-.21,3.18-.64c1-.42,1.87-1.01,2.62-1.76s1.34-1.62,1.78-2.62c.43-1,.65-2.07.65-3.21s-.22-2.18-.65-3.18c-.43-1-1.03-1.87-1.78-2.62-.75-.75-1.62-1.34-2.62-1.78-1-.43-2.06-.65-3.18-.65s-2.21.22-3.21.65Z"/>
  <path class="cls-2" d="M162.05,54.06v14.32c0,.59.11,1.15.33,1.67.22.52.52.98.92,1.38.39.39.86.71,1.39.95.53.24,1.11.35,1.75.35s1.19-.12,1.73-.35,1.01-.55,1.41-.95.71-.85.93-1.38c.23-.52.34-1.08.34-1.67v-14.32h3.73v14.26c0,.93-.19,1.87-.56,2.84s-.91,1.83-1.6,2.6c-.69.79-1.54,1.43-2.56,1.92-1.02.49-2.17.74-3.45.74s-2.42-.25-3.42-.74c-1-.49-1.84-1.13-2.53-1.92-.71-.77-1.24-1.64-1.6-2.6s-.53-1.91-.53-2.84v-14.26h3.73Z"/>
  <path class="cls-2" d="M188.69,58.96c-.17-.37-.41-.72-.72-1.04-.3-.34-.66-.61-1.1-.83-.43-.22-.92-.33-1.45-.33-1.12,0-1.99.32-2.6.96-.61.64-.92,1.36-.92,2.14,0,.59.21,1.08.62,1.47.41.38.93.71,1.54.99.59.26,1.23.49,1.92.7.69.21,1.3.43,1.83.67.65.32,1.3.61,1.94.87.64.27,1.21.61,1.7,1.02.51.41.92.95,1.23,1.61.31.66.46,1.52.46,2.59,0,.87-.2,1.71-.61,2.52-.4.81-.96,1.52-1.67,2.13-.69.63-1.5,1.14-2.43,1.52-.93.38-1.91.57-2.96.55-1.28,0-2.42-.22-3.4-.67-.99-.44-1.81-1.02-2.46-1.73-.67-.69-1.17-1.47-1.51-2.34-.34-.87-.5-1.72-.5-2.55h3.7c0,1.24.42,2.21,1.26,2.9.84.69,1.8,1.04,2.88,1.04.61,0,1.16-.09,1.66-.28.49-.19.91-.44,1.24-.75.36-.32.63-.67.81-1.05s.28-.77.28-1.17c0-.85-.34-1.5-1.01-1.97-.67-.46-1.47-.91-2.4-1.35-.81-.32-1.67-.62-2.59-.9-.92-.29-1.76-.65-2.53-1.08-.77-.45-1.41-1.03-1.92-1.74-.51-.71-.77-1.66-.77-2.84,0-.83.19-1.63.58-2.41s.9-1.47,1.55-2.06c.65-.59,1.42-1.07,2.29-1.43s1.81-.55,2.8-.55c1.05,0,2,.19,2.87.56s1.62.86,2.25,1.45c.61.61,1.1,1.3,1.48,2.07.37.77.59,1.55.65,2.34h-3.76c0-.32-.08-.66-.25-1.03Z"/>
  <path class="cls-2" d="M210.13,54.16v3.23h-10.65v5.56h10.36v3.05h-10.36v6.78h10.95v3.19h-14.56v-21.81h14.26Z"/>
  <path class="cls-2" d="M223.75,58.96c-.17-.37-.41-.72-.72-1.04-.3-.34-.66-.61-1.1-.83-.43-.22-.92-.33-1.45-.33-1.12,0-1.99.32-2.6.96-.61.64-.92,1.36-.92,2.14,0,.59.21,1.08.62,1.47.41.38.93.71,1.54.99.59.26,1.23.49,1.92.7.69.21,1.3.43,1.83.67.65.32,1.3.61,1.94.87.64.27,1.21.61,1.7,1.02.51.41.92.95,1.23,1.61.31.66.46,1.52.46,2.59,0,.87-.2,1.71-.61,2.52-.4.81-.96,1.52-1.67,2.13-.69.63-1.5,1.14-2.43,1.52-.93.38-1.91.57-2.96.55-1.28,0-2.42-.22-3.4-.67-.99-.44-1.81-1.02-2.46-1.73-.67-.69-1.17-1.47-1.51-2.34-.34-.87-.5-1.72-.5-2.55h3.7c0,1.24.42,2.21,1.26,2.9.84.69,1.8,1.04,2.88,1.04.61,0,1.16-.09,1.66-.28.49-.19.91-.44,1.24-.75.36-.32.63-.67.81-1.05s.28-.77.28-1.17c0-.85-.34-1.5-1.01-1.97-.67-.46-1.47-.91-2.4-1.35-.81-.32-1.67-.62-2.59-.9-.92-.29-1.76-.65-2.53-1.08-.77-.45-1.41-1.03-1.92-1.74-.51-.71-.77-1.66-.77-2.84,0-.83.19-1.63.58-2.41s.9-1.47,1.55-2.06c.65-.59,1.42-1.07,2.29-1.43s1.81-.55,2.8-.55c1.05,0,2,.19,2.87.56s1.62.86,2.25,1.45c.61.61,1.1,1.3,1.48,2.07.37.77.59,1.55.65,2.34h-3.76c0-.32-.08-.66-.25-1.03Z"/>
  <g>
    <ellipse class="cls-2" cx="62.49" cy="47.13" rx="51.18" ry="27.02" transform="translate(-15.02 57.99) rotate(-45)"/>
    <g>
      <polyline class="cls-3" points="76.96 70.57 45.43 70.57 45.43 38.94 79.55 38.94 79.55 68.21"/>
      <polygon class="cls-3" points="83.16 42.27 41.82 42.27 62.32 23.69 83.16 42.27"/>
      <rect class="cls-2" x="67.07" y="57.25" width="6.66" height="13.31"/>
      <rect class="cls-2" x="55.97" y="48.1" width="3.61" height="2.5" transform="translate(115.55 98.69) rotate(180)"/>
      <rect class="cls-2" x="52.37" y="48.1" width="2.5" height="2.5" transform="translate(107.23 98.69) rotate(180)"/>
      <rect class="cls-2" x="52.37" y="51.7" width="2.5" height="2.5" transform="translate(107.23 105.9) rotate(180)"/>
      <rect class="cls-2" x="55.97" y="51.7" width="3.61" height="2.5" transform="translate(115.55 105.9) rotate(180)"/>
    </g>
    <g>
      <rect class="cls-3" x="72.96" y="22.53" width="16.39" height="15.19"/>
      <polygon class="cls-3" points="91.08 24.13 71.23 24.13 81.08 15.2 91.08 24.13"/>
      <rect class="cls-2" x="83.36" y="31.32" width="3.2" height="6.39"/>
      <rect class="cls-2" x="78.03" y="26.93" width="1.73" height="1.2" transform="translate(157.79 55.05) rotate(180)"/>
      <rect class="cls-2" x="76.3" y="26.93" width="1.2" height="1.2" transform="translate(153.79 55.05) rotate(180)"/>
      <rect class="cls-2" x="76.3" y="28.66" width="1.2" height="1.2" transform="translate(153.79 58.52) rotate(180)"/>
      <rect class="cls-2" x="78.03" y="28.66" width="1.73" height="1.2" transform="translate(157.79 58.52) rotate(180)"/>
    </g>
  </g>
  <g>
    <circle class="cls-1" cx="15.66" cy="11.9" r="11.9"/>
    <polygon class="cls-1" points="22.41 47.33 21.3 47.61 15.62 27.63 17.48 27.15 22.41 47.33"/>
    <polygon class="cls-1" points=".97 46.22 0 45.94 4.73 25.74 6.6 26.21 .97 46.22"/>
    <polygon class="cls-1" points="40.85 37.93 40.15 38.49 25.14 24.3 26.5 22.94 40.85 37.93"/>
    <polygon class="cls-1" points="50.12 22.43 49.84 23.26 30.34 16.1 31.06 14.31 50.12 22.43"/>
    <polygon class="cls-1" points="51.23 6.82 51.23 7.52 30.47 6.82 30.59 4.9 51.23 6.82"/>
  </g>
  <path class="cls-2" d="M148.97,18.45l8.95,21.89h-3.66l-2.32-5.73h-9.84l-2.35,5.73h-3.69l8.98-21.89h3.92ZM143.5,31.49h7.02l-3.51-8.82-3.51,8.82Z"/>
</svg>